<svg width="155" height="181" viewBox="0 0 155 181" fill="none" xmlns="http://www.w3.org/2000/svg">
<path d="M0 59.2092C0 27.9669 25.327 2.63989 56.5693 2.63989H98.4306C129.673 2.63989 155 27.9669 155 59.2092V163.674C155 173.047 147.402 180.645 138.029 180.645H16.9708C7.59808 180.645 0 173.047 0 163.674V59.2092Z" fill="#FF854A"/>
<rect x="18.3135" y="45.7612" width="98.3068" height="116.43" rx="4.29288" transform="rotate(-11.4566 18.3135 45.7612)" fill="white"/>
<ellipse cx="99.1201" cy="69.0169" rx="7.72717" ry="5.8348" transform="rotate(-21.7009 99.1201 69.0169)" fill="#FF6086"/>
<ellipse cx="108.198" cy="85.1044" rx="1.31877" ry="1.21182" transform="rotate(-21.7009 108.198 85.1044)" fill="#085090"/>
<ellipse cx="104.335" cy="37.8827" rx="1.31877" ry="1.21182" transform="rotate(-21.7009 104.335 37.8827)" fill="#01458B"/>
<ellipse cx="60.5474" cy="54.6249" rx="1.31877" ry="1.21182" transform="rotate(-21.7009 60.5474 54.6249)" fill="#01458B"/>
<ellipse cx="91.8854" cy="48.1854" rx="1.31877" ry="1.21182" transform="rotate(-21.7009 91.8854 48.1854)" fill="#FF6086"/>
<ellipse cx="45.9517" cy="102.276" rx="1.31877" ry="1.21182" transform="rotate(-21.7009 45.9517 102.276)" fill="#FF6086"/>
<ellipse cx="35.2195" cy="54.1959" rx="1.31877" ry="1.21182" transform="rotate(-21.7009 35.2195 54.1959)" fill="#FF6086"/>
<ellipse cx="80.724" cy="121.148" rx="1.31877" ry="1.21182" transform="rotate(-21.7009 80.724 121.148)" fill="#085090"/>
<ellipse cx="100.9" cy="127.604" rx="1.31877" ry="1.21182" transform="rotate(-21.7009 100.9 127.604)" fill="#FF6086"/>
<ellipse cx="68.2747" cy="143.453" rx="1.31877" ry="1.21182" transform="rotate(-21.7009 68.2747 143.453)" fill="#FF6086"/>
<ellipse cx="58.7668" cy="80.1786" rx="7.72717" ry="5.8348" transform="rotate(-21.7009 58.7668 80.1786)" fill="#FF6086"/>
<mask id="path-14-inside-1_1299_1352" fill="white">
<path d="M97.0602 60.4691C96.925 59.3256 96.5762 58.2211 96.0382 57.2324C95.5001 56.2436 94.7857 55.3942 93.9443 54.743C93.103 54.0918 92.1549 53.6544 91.1657 53.461C90.1766 53.2677 89.1701 53.3231 88.2159 53.6234C87.2618 53.9237 86.3828 54.4618 85.64 55.2002C84.8972 55.9386 84.3083 56.8598 83.9141 57.8999C83.52 58.9399 83.3299 60.074 83.3572 61.2235C83.3845 62.373 83.6285 63.5104 84.0722 64.5569L86.0095 63.5263C85.7051 62.8086 85.5378 62.0285 85.5191 61.2401C85.5004 60.4516 85.6307 59.6738 85.9011 58.9605C86.1714 58.2471 86.5753 57.6153 87.0848 57.1088C87.5942 56.6024 88.1971 56.2334 88.8515 56.0274C89.5059 55.8214 90.1963 55.7834 90.8747 55.916C91.5531 56.0486 92.2034 56.3486 92.7804 56.7953C93.3575 57.2419 93.8475 57.8245 94.2165 58.5027C94.5855 59.1808 94.8247 59.9383 94.9175 60.7226L97.0602 60.4691Z"/>
</mask>
<path d="M97.0602 60.4691C96.925 59.3256 96.5762 58.2211 96.0382 57.2324C95.5001 56.2436 94.7857 55.3942 93.9443 54.743C93.103 54.0918 92.1549 53.6544 91.1657 53.461C90.1766 53.2677 89.1701 53.3231 88.2159 53.6234C87.2618 53.9237 86.3828 54.4618 85.64 55.2002C84.8972 55.9386 84.3083 56.8598 83.9141 57.8999C83.52 58.9399 83.3299 60.074 83.3572 61.2235C83.3845 62.373 83.6285 63.5104 84.0722 64.5569L86.0095 63.5263C85.7051 62.8086 85.5378 62.0285 85.5191 61.2401C85.5004 60.4516 85.6307 59.6738 85.9011 58.9605C86.1714 58.2471 86.5753 57.6153 87.0848 57.1088C87.5942 56.6024 88.1971 56.2334 88.8515 56.0274C89.5059 55.8214 90.1963 55.7834 90.8747 55.916C91.5531 56.0486 92.2034 56.3486 92.7804 56.7953C93.3575 57.2419 93.8475 57.8245 94.2165 58.5027C94.5855 59.1808 94.8247 59.9383 94.9175 60.7226L97.0602 60.4691Z" stroke="#01458B" stroke-width="3.55918" mask="url(#path-14-inside-1_1299_1352)"/>
<mask id="path-15-inside-2_1299_1352" fill="white">
<path d="M68.6881 67.2565C68.4759 66.1247 68.0534 65.0464 67.4498 64.0962C66.8462 63.146 66.076 62.3468 65.1927 61.7539C64.3093 61.1609 63.3338 60.7885 62.3338 60.6625C61.3339 60.5364 60.3334 60.6596 59.4017 61.0237C58.47 61.3877 57.6294 61.9838 56.9382 62.7707C56.2469 63.5576 55.7216 64.5165 55.3985 65.5808C55.0755 66.6451 54.9624 67.7895 55.0673 68.9345C55.1722 70.0795 55.4924 71.1979 56.0058 72.212L57.869 71.0529C57.5169 70.3574 57.2973 69.5903 57.2253 68.805C57.1534 68.0197 57.2309 67.2348 57.4525 66.5048C57.6741 65.7748 58.0344 65.1172 58.5085 64.5775C58.9826 64.0378 59.5591 63.6289 60.1982 63.3792C60.8372 63.1295 61.5234 63.045 62.2092 63.1315C62.895 63.218 63.5641 63.4734 64.17 63.88C64.7759 64.2867 65.3041 64.8349 65.7181 65.4866C66.1321 66.1382 66.4219 66.8779 66.5674 67.6541L68.6881 67.2565Z"/>
</mask>
<path d="M68.6881 67.2565C68.4759 66.1247 68.0534 65.0464 67.4498 64.0962C66.8462 63.146 66.076 62.3468 65.1927 61.7539C64.3093 61.1609 63.3338 60.7885 62.3338 60.6625C61.3339 60.5364 60.3334 60.6596 59.4017 61.0237C58.47 61.3877 57.6294 61.9838 56.9382 62.7707C56.2469 63.5576 55.7216 64.5165 55.3985 65.5808C55.0755 66.6451 54.9624 67.7895 55.0673 68.9345C55.1722 70.0795 55.4924 71.1979 56.0058 72.212L57.869 71.0529C57.5169 70.3574 57.2973 69.5903 57.2253 68.805C57.1534 68.0197 57.2309 67.2348 57.4525 66.5048C57.6741 65.7748 58.0344 65.1172 58.5085 64.5775C58.9826 64.0378 59.5591 63.6289 60.1982 63.3792C60.8372 63.1295 61.5234 63.045 62.2092 63.1315C62.895 63.218 63.5641 63.4734 64.17 63.88C64.7759 64.2867 65.3041 64.8349 65.7181 65.4866C66.1321 66.1382 66.4219 66.8779 66.5674 67.6541L68.6881 67.2565Z" stroke="#01458B" stroke-width="3.55918" mask="url(#path-15-inside-2_1299_1352)"/>
<mask id="path-16-inside-3_1299_1352" fill="white">
<path d="M73.9827 85.2121C74.1193 86.3555 74.5172 87.4538 75.1487 88.431C75.7803 89.4081 76.6304 90.2406 77.6403 90.8708C78.6501 91.5011 79.7954 91.9139 80.9969 92.0808C82.1984 92.2477 83.4272 92.1646 84.5983 91.8373C85.7693 91.5099 86.8545 90.9462 87.7787 90.1852C88.7029 89.4242 89.444 88.484 89.9505 87.43C90.4571 86.3759 90.717 85.2331 90.7123 84.0808C90.7075 82.9284 90.4383 81.7942 89.9231 80.7566L87.5351 81.8433C87.8884 82.555 88.073 83.333 88.0763 84.1233C88.0795 84.9136 87.9013 85.6974 87.5538 86.4204C87.2064 87.1434 86.6982 87.7882 86.0643 88.3101C85.4304 88.8321 84.6861 89.2187 83.8829 89.4432C83.0797 89.6677 82.2369 89.7247 81.4128 89.6103C80.5888 89.4958 79.8033 89.2126 79.1106 88.7804C78.418 88.3481 77.8349 87.7771 77.4018 87.107C76.9686 86.4368 76.6957 85.6835 76.602 84.8993L73.9827 85.2121Z"/>
</mask>
<path d="M73.9827 85.2121C74.1193 86.3555 74.5172 87.4538 75.1487 88.431C75.7803 89.4081 76.6304 90.2406 77.6403 90.8708C78.6501 91.5011 79.7954 91.9139 80.9969 92.0808C82.1984 92.2477 83.4272 92.1646 84.5983 91.8373C85.7693 91.5099 86.8545 90.9462 87.7787 90.1852C88.7029 89.4242 89.444 88.484 89.9505 87.43C90.4571 86.3759 90.717 85.2331 90.7123 84.0808C90.7075 82.9284 90.4383 81.7942 89.9231 80.7566L87.5351 81.8433C87.8884 82.555 88.073 83.333 88.0763 84.1233C88.0795 84.9136 87.9013 85.6974 87.5538 86.4204C87.2064 87.1434 86.6982 87.7882 86.0643 88.3101C85.4304 88.8321 84.6861 89.2187 83.8829 89.4432C83.0797 89.6677 82.2369 89.7247 81.4128 89.6103C80.5888 89.4958 79.8033 89.2126 79.1106 88.7804C78.418 88.3481 77.8349 87.7771 77.4018 87.107C76.9686 86.4368 76.6957 85.6835 76.602 84.8993L73.9827 85.2121Z" stroke="#01458B" stroke-width="3.55918" mask="url(#path-16-inside-3_1299_1352)"/>
<rect x="50.3459" y="29.9702" width="37.606" height="13.9402" rx="1.62095" transform="rotate(-9.37364 50.3459 29.9702)" fill="#F0A9B1"/>
<path d="M52.4563 42.2468L89.5602 36.1219L90.0235 38.9287C90.1693 39.8119 89.5715 40.6462 88.6882 40.792L54.7829 46.3889C53.8997 46.5347 53.0654 45.9369 52.9196 45.0536L52.4563 42.2468Z" fill="#FF6489"/>
<path d="M79.5169 100.302C80.7128 99.9704 81.745 101.198 81.2134 102.319L75.3624 114.661C74.9104 115.614 73.6235 115.78 72.9444 114.973L65.6338 106.282C64.9546 105.474 65.3386 104.235 66.3553 103.953L79.5169 100.302Z" fill="#FFA3AD"/>
<rect x="16.2111" y="144.963" width="64.3305" height="14.4889" transform="rotate(-39.4212 16.2111 144.963)" fill="#FFD64B"/>
<line x1="24.0184" y1="144.671" x2="68.8107" y2="107.618" stroke="#FF7F51" stroke-width="2.02844"/>
<line x1="27.4824" y1="148.388" x2="72.05" y2="111.693" stroke="#FE8745" stroke-width="2.02844"/>
<path d="M16.3106 148.37C15.2943 147.133 15.4727 145.307 16.709 144.291L21.3625 140.466L30.8108 151.96L26.1573 155.785C24.921 156.801 23.095 156.623 22.0787 155.387L16.3106 148.37Z" fill="#FD6186"/>
<rect x="140.557" y="127.018" width="5.16795" height="17.4323" transform="rotate(44.107 140.557 127.018)" fill="#A589ED"/>
<rect x="115.73" y="102.911" width="34.6182" height="17.4974" transform="rotate(44.107 115.73 102.911)" fill="#085090"/>
<rect x="112.345" y="99.5625" width="5.16795" height="17.5503" transform="rotate(44.107 112.345 99.5625)" fill="#A589ED"/>
<path d="M144.3 130.548L147.154 133.314C148.6 134.715 148.635 137.023 147.234 138.469L140.142 145.785C138.741 147.231 136.433 147.267 134.988 145.865L132.134 143.099L144.3 130.548Z" fill="#FFD540"/>
<path d="M112.404 99.6885L110.711 98.048C109.266 96.6467 106.958 96.6827 105.557 98.1283L98.3302 105.584C96.929 107.029 96.965 109.337 98.4106 110.738L100.103 112.379L112.404 99.6885Z" fill="#FFD540"/>
<ellipse cx="1.50251" cy="0.858575" rx="1.50251" ry="0.858575" transform="matrix(-1 -1.95787e-08 -1.95787e-08 1 121.121 125.99)" fill="white"/>
<path d="M110.535 118.965L117.404 125.404" stroke="white" stroke-width="0.858575" stroke-linecap="round"/>
<path d="M14.5195 81.46L16.0859 86.2809H21.1549L17.054 89.2604L18.6204 94.0813L14.5195 91.1018L10.4186 94.0813L11.985 89.2604L7.88408 86.2809H12.9531L14.5195 81.46Z" fill="#F0A9B1"/>
<path d="M108.047 156.132L109.614 160.953H114.683L110.582 163.932L112.148 168.753L108.047 165.773L103.947 168.753L105.513 163.932L101.412 160.953H106.481L108.047 156.132Z" fill="#D9D9D9"/>
<path d="M108.047 156.132L109.614 160.953H114.683L110.582 163.932L112.148 168.753L108.047 165.773L103.947 168.753L105.513 163.932L101.412 160.953H106.481L108.047 156.132Z" fill="#FF6086"/>
<path d="M29.6046 157.64L31.171 162.461H36.24L32.1391 165.44L33.7055 170.261L29.6046 167.281L25.5037 170.261L27.0701 165.44L22.9692 162.461H28.0382L29.6046 157.64Z" fill="#085090"/>
<path d="M137.463 49.781L139.03 54.6019H144.099L139.998 57.5814L141.564 62.4023L137.463 59.4228L133.363 62.4023L134.929 57.5814L130.828 54.6019H135.897L137.463 49.781Z" fill="#FFD540"/>
<path d="M54.118 6.41113L55.6844 11.232H60.7534L56.6525 14.2115L58.2189 19.0324L54.118 16.053L50.0171 19.0324L51.5835 14.2115L47.4826 11.232H52.5516L54.118 6.41113Z" fill="#D9D9D9"/>
<path d="M23.1934 20.5537L10.7482 36.9588L40.1642 21.4965L23.1934 20.5537Z" stroke="#085090" stroke-width="1.88564"/>
<path d="M106.865 6.77691L87.4939 13.7596L120.586 16.8089L106.865 6.77691Z" stroke="#FAAE2B" stroke-width="1.88564"/>
<path d="M11.1252 114.082H21.8734L16.405 127.093L11.8795 114.647M138.595 87.8711H151.229L145.006 102.391L138.595 87.8711ZM67.3175 166.314H77.8771L72.2201 175.554L67.3175 166.314Z" stroke="#FFD64B" stroke-width="1.88564"/>
<path d="M18.48 62.2261C18.48 65.9752 15.4408 69.0144 11.6917 69.0144C7.94259 69.0144 14.8968 65.9752 14.8968 62.2261C14.8968 58.477 7.94259 55.4377 11.6917 55.4377C15.4408 55.4377 18.48 58.477 18.48 62.2261Z" fill="#085090"/>
<path d="M139.893 163.297C139.893 167.046 136.854 170.085 133.105 170.085C129.356 170.085 136.31 167.046 136.31 163.297C136.31 159.548 129.356 156.509 133.105 156.509C136.854 156.509 139.893 159.548 139.893 163.297Z" fill="#085090"/>
<path d="M148.944 116.156C148.944 119.905 145.905 122.944 142.156 122.944C138.407 122.944 145.361 119.905 145.361 116.156C145.361 112.407 138.407 109.367 142.156 109.367C145.905 109.367 148.944 112.407 148.944 116.156Z" fill="#085090"/>
<circle cx="135.201" cy="36.0156" r="2.07421" fill="#FF6086"/>
<circle cx="124.264" cy="43.5586" r="2.07421" fill="#085090"/>
<circle cx="26.2104" cy="104.276" r="2.07421" fill="#FF6086"/>
<circle cx="89.9453" cy="159.714" r="2.07421" fill="#085090"/>
<circle cx="9.61681" cy="166.88" r="2.07421" fill="#FAAE2B"/>
</svg>
