<svg width="43" height="42" viewBox="0 0 43 42" fill="none" xmlns="http://www.w3.org/2000/svg">
<path d="M8.44875 4.80025C7.80172 1.79205 11.2345 -0.406777 13.6966 1.43888L20.6077 6.61985C21.6758 7.42055 23.119 7.50527 24.2735 6.83502L31.7433 2.49818C34.4043 0.953231 37.5563 3.53857 36.5618 6.45042L33.7701 14.6243C33.3386 15.8875 33.704 17.2864 34.6982 18.1772L41.1311 23.9412C43.4227 25.9946 41.9379 29.7912 38.8613 29.7452L30.2248 29.616C28.89 29.596 27.6726 30.3758 27.1326 31.5966L23.6385 39.4958C22.3938 42.3098 18.3242 42.0709 17.4172 39.1306L14.8713 30.8769C14.4778 29.6013 13.36 28.6844 12.0321 28.5481L3.43974 27.666C0.378826 27.3518 -0.651579 23.4075 1.86455 21.6364L8.9276 16.6645C10.0192 15.8961 10.5457 14.5497 10.265 13.2446L8.44875 4.80025Z" fill="#E9365B"/>
</svg>
