<svg width="115" height="115" viewBox="0 0 115 115" fill="none" xmlns="http://www.w3.org/2000/svg">
<circle cx="59.0494" cy="38.3334" r="11.9792" fill="white" stroke="#222222" stroke-width="4.79167" stroke-linecap="round"/>
<path d="M67.5208 31.1459C68.4685 29.5044 69.8817 28.1808 71.5816 27.3425C73.2816 26.5042 75.1919 26.1888 77.0711 26.4362C78.9503 26.6836 80.7139 27.4827 82.139 28.7324C83.564 29.9821 84.5865 31.6264 85.077 33.4572C85.5676 35.288 85.5042 37.2232 84.895 39.018C84.2857 40.8128 83.1579 42.3867 81.6542 43.5405C80.1505 44.6944 78.3384 45.3764 76.447 45.5004C74.5557 45.6243 72.67 45.1847 71.0286 44.2369" stroke="#222222" stroke-width="4.79167"/>
<path d="M50.5781 31.1459C49.6304 29.5044 48.2172 28.1808 46.5172 27.3425C44.8173 26.5042 42.907 26.1888 41.0278 26.4362C39.1486 26.6836 37.385 27.4827 35.9599 28.7324C34.5349 29.9821 33.5124 31.6264 33.0219 33.4572C32.5313 35.288 32.5946 37.2232 33.2039 39.018C33.8132 40.8128 34.941 42.3867 36.4447 43.5405C37.9484 44.6944 39.7605 45.3764 41.6519 45.5004C43.5432 45.6243 45.4288 45.1847 47.0703 44.2369" stroke="#222222" stroke-width="4.79167"/>
<path d="M59.0495 59.8959C78.6006 59.8959 83.6475 75.7187 84.9503 83.8876C85.3671 86.501 83.2583 88.6459 80.612 88.6459H37.487C34.8406 88.6459 32.7319 86.501 33.1486 83.8877C34.4514 75.7187 39.4983 59.8959 59.0495 59.8959Z" stroke="#222222" stroke-width="4.79167" stroke-linecap="round"/>
<path fill-rule="evenodd" clip-rule="evenodd" d="M94.012 73.8696C92.2476 66.8239 87.5499 55.1042 75.8203 55.1042C70.7733 55.1042 67.0282 57.274 64.2584 60.3076C76.598 62.3582 81.7366 71.666 83.8765 79.0626H89.6921C92.5269 79.0626 94.7006 76.6195 94.012 73.8696Z" fill="white"/>
<path d="M94.012 73.8696L91.6879 74.4516L91.6879 74.4516L94.012 73.8696ZM64.2584 60.3076L62.4891 58.6921L59.5162 61.9482L63.8657 62.671L64.2584 60.3076ZM83.8765 79.0626L81.5751 79.7284L82.0756 81.4584H83.8765V79.0626ZM75.8203 55.1042V57.5001C80.7448 57.5001 84.2033 59.9086 86.7372 63.2833C89.3217 66.7254 90.8394 71.0632 91.6879 74.4516L94.012 73.8696L96.3361 73.2876C95.4202 69.6302 93.7068 64.5853 90.569 60.4062C87.3805 56.1597 82.6253 52.7084 75.8203 52.7084V55.1042ZM64.2584 60.3076L66.0277 61.923C68.4253 59.297 71.5589 57.5001 75.8203 57.5001V55.1042V52.7084C69.9877 52.7084 65.631 55.251 62.4891 58.6921L64.2584 60.3076ZM64.2584 60.3076L63.8657 62.671C74.8889 64.5028 79.5527 72.7381 81.5751 79.7284L83.8765 79.0626L86.178 78.3967C83.9205 70.5938 78.307 60.2135 64.6512 57.9441L64.2584 60.3076ZM89.6921 79.0626V76.6667H83.8765V79.0626V81.4584H89.6921V79.0626ZM94.012 73.8696L91.6879 74.4516C91.9458 75.4811 91.1895 76.6667 89.6921 76.6667V79.0626V81.4584C93.8644 81.4584 97.4555 77.7579 96.3361 73.2876L94.012 73.8696Z" fill="#222222"/>
<path fill-rule="evenodd" clip-rule="evenodd" d="M53.8404 60.3075C51.0707 57.2739 47.3256 55.1041 42.2786 55.1041C30.549 55.1041 25.8512 66.8237 24.0868 73.8694C23.3981 76.6194 25.5718 79.0625 28.4067 79.0625H34.2223C36.3623 71.6659 41.5009 62.3581 53.8404 60.3075Z" fill="white"/>
<path d="M53.8404 60.3075L54.2332 62.6709L58.5826 61.9481L55.6097 58.692L53.8404 60.3075ZM24.0868 73.8694L21.7627 73.2874L21.7627 73.2874L24.0868 73.8694ZM34.2223 79.0625V81.4583H36.0233L36.5238 79.7283L34.2223 79.0625ZM42.2786 55.1041V57.5C46.54 57.5 49.6735 59.2969 52.0711 61.9229L53.8404 60.3075L55.6097 58.692C52.4678 55.2508 48.1112 52.7083 42.2786 52.7083V55.1041ZM24.0868 73.8694L26.4108 74.4514C27.2594 71.0631 28.7771 66.7253 31.3616 63.2832C33.8955 59.9085 37.3541 57.5 42.2786 57.5V55.1041V52.7083C35.4736 52.7083 30.7184 56.1595 27.5299 60.4061C24.392 64.5852 22.6786 69.63 21.7627 73.2874L24.0868 73.8694ZM28.4067 79.0625V76.6666C26.9092 76.6666 26.153 75.481 26.4108 74.4514L24.0868 73.8694L21.7627 73.2874C20.6432 77.7578 24.2344 81.4583 28.4067 81.4583V79.0625ZM34.2223 79.0625V76.6666H28.4067V79.0625V81.4583H34.2223V79.0625ZM34.2223 79.0625L36.5238 79.7283C38.5462 72.738 43.2099 64.5027 54.2332 62.6709L53.8404 60.3075L53.4477 57.944C39.7918 60.2134 34.1784 70.5937 31.9209 78.3966L34.2223 79.0625Z" fill="#222222"/>
</svg>
