<svg width="96" height="96" viewBox="0 0 96 96" fill="none" xmlns="http://www.w3.org/2000/svg">
<rect x="13.875" y="13.875" width="68.25" height="68.25" rx="10.375" fill="white" stroke="black" stroke-width="3"/>
<path d="M12.375 28.2084H79.6667" stroke="black" stroke-width="3"/>
<path d="M23.2897 62.681C22.6533 63.2113 22.5673 64.1572 23.0977 64.7936C23.628 65.43 24.5739 65.516 25.2103 64.9856L23.2897 62.681ZM71.2708 44.0416C71.2708 43.2132 70.5993 42.5416 69.7708 42.5416H56.2708C55.4424 42.5416 54.7708 43.2132 54.7708 44.0416C54.7708 44.8701 55.4424 45.5416 56.2708 45.5416H68.2708V57.5416C68.2708 58.3701 68.9424 59.0416 69.7708 59.0416C70.5993 59.0416 71.2708 58.3701 71.2708 57.5416V44.0416ZM33.7772 55.894L32.8169 54.7417L33.7772 55.894ZM25.2103 64.9856L34.7374 57.0463L32.8169 54.7417L23.2897 62.681L25.2103 64.9856ZM37.7401 56.9345L46.3787 63.1049L48.1224 60.6637L39.4838 54.4932L37.7401 56.9345ZM53.4109 62.5229L70.8315 45.1023L68.7102 42.981L51.2896 60.4016L53.4109 62.5229ZM46.3787 63.1049C48.5499 64.6558 51.5242 64.4096 53.4109 62.5229L51.2896 60.4016C50.4398 61.2513 49.1003 61.3622 48.1224 60.6637L46.3787 63.1049ZM34.7374 57.0463C35.5964 56.3305 36.8302 56.2845 37.7401 56.9345L39.4838 54.4932C37.4636 53.0502 34.7241 53.1523 32.8169 54.7417L34.7374 57.0463Z" fill="black"/>
</svg>
