<svg width="194" height="170" viewBox="0 0 194 170" fill="none" xmlns="http://www.w3.org/2000/svg">
<path d="M2.0595 8.82235C2.13713 3.94991 6.14997 0.0629385 11.0224 0.140577L174.677 2.74828C179.549 2.82592 183.436 6.83875 183.359 11.7112L181.44 132.136C181.362 137.009 177.349 140.896 172.477 140.818L24.2614 138.456C10.8622 138.243 0.173124 127.207 0.38663 113.808L2.0595 8.82235Z" fill="#FEA4AC"/>
<rect x="2.20007" width="169.222" height="127.517" rx="8.82346" transform="rotate(0.912886 2.20007 0)" fill="#F0854F"/>
<rect x="18.0189" y="11.0293" width="136.925" height="106.405" rx="8.82346" transform="rotate(0.912886 18.0189 11.0293)" fill="#F8D555"/>
<circle cx="163.455" cy="81.3965" r="3.74997" fill="#03488B"/>
<circle cx="8.3825" cy="37.0586" r="2.20586" fill="#FEFFFD"/>
<path d="M20.7354 79.4111L23.1126 86.7274H30.8053L24.5817 91.249L26.9589 98.5653L20.7354 94.0436L14.5118 98.5653L16.889 91.249L10.6654 86.7274H18.3582L20.7354 79.4111Z" fill="#FBFFFF"/>
<path d="M143.823 32.6467L146.2 39.963H153.893L147.669 44.4846L150.046 51.8009L143.823 47.2792L137.599 51.8009L139.976 44.4846L133.753 39.963H141.445L143.823 32.6467Z" fill="#D9D9D9"/>
<path d="M67.8233 23.4503C67.461 22.2872 68.1091 21.0389 69.3026 20.7945C72.145 20.2124 75.0819 20.1953 77.944 20.7526C80.8062 21.3099 83.5221 22.4276 85.9385 24.0337C86.9531 24.7081 87.0855 26.1083 86.3132 27.0505L84.3504 29.4452C83.5781 30.3874 82.1948 30.5084 81.1468 29.8872C79.718 29.0404 78.15 28.4417 76.5091 28.1222C74.8682 27.8027 73.1901 27.7694 71.548 28.0182C70.3434 28.2008 69.1066 27.5696 68.7442 26.4065L67.8233 23.4503Z" fill="#FEFFFD"/>
<path d="M67.8233 23.4503C67.461 22.2872 68.1091 21.0389 69.3026 20.7945C72.145 20.2124 75.0819 20.1953 77.944 20.7526C80.8062 21.3099 83.5221 22.4276 85.9385 24.0337C86.9531 24.7081 87.0855 26.1083 86.3132 27.0505L84.3504 29.4452C83.5781 30.3874 82.1948 30.5084 81.1468 29.8872C79.718 29.0404 78.15 28.4417 76.5091 28.1222C74.8682 27.8027 73.1901 27.7694 71.548 28.0182C70.3434 28.2008 69.1066 27.5696 68.7442 26.4065L67.8233 23.4503Z" fill="#FEFFFD"/>
<path d="M67.8233 23.4503C67.461 22.2872 68.1091 21.0389 69.3026 20.7945C72.145 20.2124 75.0819 20.1953 77.944 20.7526C80.8062 21.3099 83.5221 22.4276 85.9385 24.0337C86.9531 24.7081 87.0855 26.1083 86.3132 27.0505L84.3504 29.4452C83.5781 30.3874 82.1948 30.5084 81.1468 29.8872C79.718 29.0404 78.15 28.4417 76.5091 28.1222C74.8682 27.8027 73.1901 27.7694 71.548 28.0182C70.3434 28.2008 69.1066 27.5696 68.7442 26.4065L67.8233 23.4503Z" fill="#FEFFFD"/>
<path d="M105.347 27.8859C104.985 26.7228 105.633 25.4745 106.826 25.2301C109.669 24.648 112.606 24.6309 115.468 25.1882C118.33 25.7455 121.046 26.8632 123.462 28.4693C124.477 29.1436 124.609 30.5439 123.837 31.4861L121.874 33.8807C121.102 34.8229 119.719 34.9439 118.671 34.3228C117.242 33.476 115.674 32.8772 114.033 32.5577C112.392 32.2382 110.714 32.2049 109.072 32.4538C107.867 32.6363 106.63 32.0051 106.268 30.842L105.347 27.8859Z" fill="#FEFFFD"/>
<ellipse cx="71.6021" cy="55.3769" rx="15.2706" ry="20.9182" transform="rotate(14.3706 71.6021 55.3769)" fill="#FEFFFD"/>
<ellipse cx="71.3962" cy="55.5548" rx="11.7424" ry="16.0851" transform="rotate(14.3706 71.3962 55.5548)" fill="#04478C"/>
<path d="M78.8511 55.5762C77.6325 56.1535 78.2432 52.8668 77.0542 50.3567C75.8651 47.8465 73.3267 47.0634 74.5453 46.4861C75.764 45.9089 77.7158 47.4758 78.9048 49.986C80.0938 52.4961 80.0698 54.9989 78.8511 55.5762Z" fill="#D9D9D9"/>
<circle cx="78.7497" cy="58.0141" r="1.10293" fill="#D9D9D9"/>
<circle cx="72.5732" cy="45.6613" r="1.10293" fill="#D9D9D9"/>
<ellipse cx="109.102" cy="56.7004" rx="15.2706" ry="20.9182" transform="rotate(14.3706 109.102 56.7004)" fill="#FEFFFD"/>
<ellipse cx="108.896" cy="56.8782" rx="11.7424" ry="16.0851" transform="rotate(14.3706 108.896 56.8782)" fill="#04478C"/>
<path d="M116.351 56.8997C115.132 57.4769 115.743 54.1903 114.554 51.6802C113.365 49.17 110.826 48.3869 112.045 47.8096C113.264 47.2324 115.215 48.7993 116.404 51.3094C117.593 53.8196 117.569 56.3224 116.351 56.8997Z" fill="#D9D9D9"/>
<circle cx="116.249" cy="59.3378" r="1.10293" fill="#D9D9D9"/>
<circle cx="110.073" cy="46.985" r="1.10293" fill="#D9D9D9"/>
<ellipse cx="64.6321" cy="84.2639" rx="20.9557" ry="18.9704" fill="#F8D555"/>
<ellipse cx="64.4615" cy="75.6242" rx="11.0293" ry="6.93272" transform="rotate(14.3401 64.4615 75.6242)" fill="#FC6085"/>
<ellipse cx="109.191" cy="84.2639" rx="20.0734" ry="18.9704" fill="#F8D555"/>
<ellipse cx="108.911" cy="78.4835" rx="11.0293" ry="6.93272" transform="rotate(-7.63735 108.911 78.4835)" fill="#FC6085"/>
<path d="M71.5773 88.2928C71.6133 92.6708 73.2048 96.8567 76.0018 99.9296C78.7988 103.003 82.5721 104.711 86.4917 104.679C90.4113 104.646 94.156 102.876 96.9022 99.7578C99.6483 96.6394 101.171 92.4279 101.135 88.0499L86.3561 88.1714L71.5773 88.2928Z" fill="#074785"/>
<ellipse cx="85.7914" cy="99.2204" rx="6.17298" ry="11.0132" transform="rotate(-87.8908 85.7914 99.2204)" fill="#FC6085"/>
<path d="M67.9408 6.17651L115.119 7.7203" stroke="white" stroke-width="4.41173" stroke-linecap="round"/>
<circle cx="2.20586" cy="2.20586" r="2.20586" transform="matrix(-1 0 0 1 123.087 5.29419)" fill="white"/>
<circle cx="2.20586" cy="2.20586" r="2.20586" transform="matrix(-1 0 0 1 64.4114 3.97046)" fill="white"/>
<path d="M60.8821 123.087L108.06 124.631" stroke="white" stroke-width="4.41173" stroke-linecap="round"/>
<circle cx="2.20586" cy="2.20586" r="2.20586" transform="matrix(-1 0 0 1 116.029 122.205)" fill="white"/>
<circle cx="2.20586" cy="2.20586" r="2.20586" transform="matrix(-1 0 0 1 57.3527 120.881)" fill="white"/>
<path d="M145.106 85.3516L146.469 59.8067" stroke="white" stroke-width="3.52938" stroke-linecap="round"/>
<circle cx="1.19544" cy="1.19544" r="1.19544" transform="matrix(-0.0205738 0.999788 0.999788 0.0205738 145.243 53.8376)" fill="white"/>
<circle cx="1.19544" cy="1.19544" r="1.19544" transform="matrix(-0.0205738 0.999788 0.999788 0.0205738 143.872 88.8811)" fill="white"/>
<path d="M163.234 62.6372L163.601 37.0586" stroke="white" stroke-width="3.52938" stroke-linecap="round"/>
<path d="M163.281 72.3516L163.234 69.2641" stroke="white" stroke-width="2.81515" stroke-linecap="round"/>
<path d="M163.281 72.3516L163.234 69.2641" stroke="white" stroke-width="2.81515" stroke-linecap="round"/>
<path d="M32.5368 78.2942L33.1578 52.7205" stroke="white" stroke-width="3.52938" stroke-linecap="round"/>
<circle cx="1.19544" cy="1.19544" r="1.19544" transform="matrix(0.00843211 0.999964 0.999964 -0.00843211 31.8065 46.8003)" fill="white"/>
<circle cx="1.19544" cy="1.19544" r="1.19544" transform="matrix(0.00843211 0.999964 0.999964 -0.00843211 31.3576 81.8438)" fill="white"/>
<rect x="26.0294" y="104.999" width="23.3822" height="5.73525" rx="2.20586" fill="#D9D9D9"/>
<rect x="52.0586" y="104.999" width="14.1175" height="5.73525" rx="2.20586" fill="#F0854F"/>
<rect x="35.2941" y="16.7646" width="14.1175" height="5.73525" rx="2.20586" fill="#F0854F"/>
<rect x="126.839" y="104.477" width="13.1517" height="54.6402" transform="rotate(-49.3178 126.839 104.477)" fill="#A089E3"/>
<path d="M120.827 94.9427C118.925 91.6843 122.427 87.9488 125.801 89.6363L134.197 93.835C136.467 94.9705 137.004 97.9723 135.268 99.8243L131.603 103.733C129.867 105.585 126.837 105.243 125.557 103.05L120.827 94.9427Z" fill="#A089E3"/>
<rect x="168.302" y="140.198" width="13.1517" height="11.1506" transform="rotate(-49.3178 168.302 140.198)" fill="#F8D555"/>
<path d="M176.82 147.432L185.393 137.459L188.956 140.521C190.281 141.66 190.431 143.656 189.293 144.981L184.842 150.158C183.704 151.482 181.707 151.633 180.383 150.495L176.82 147.432Z" fill="#A088E8"/>
<path d="M145.614 111.12L162.361 125.547" stroke="white" stroke-width="2.06595" stroke-linecap="round"/>
<circle cx="1.03297" cy="1.03297" r="1.03297" transform="matrix(-0.778571 -0.627557 -0.627557 0.778571 165.98 127.004)" fill="white"/>
<circle cx="1.03297" cy="1.03297" r="1.03297" transform="matrix(-0.778571 -0.627557 -0.627557 0.778571 144.975 109.278)" fill="white"/>
<path d="M129.108 103.079L134.843 97.3434" stroke="#074785" stroke-width="2.20586" stroke-linecap="round"/>
</svg>
