<svg width="72" height="70" viewBox="0 0 72 70" fill="none" xmlns="http://www.w3.org/2000/svg">
<path d="M9.33333 57H10.4931C12.9835 57 15.0949 58.8312 15.4471 61.2966C15.9905 65.1004 20.4405 66.8981 23.4736 64.539L30.4268 59.1309C32.2026 57.7498 34.388 57 36.6377 57H57C61.4 57 62.5 52.1111 62.5 49.6666V18.5C62.5 14.7839 59.0129 12.5499 56.4562 11.577C55.6156 11.2571 54.7119 11.1666 53.8125 11.1666H9.33333C3.46667 11.1666 2 16.0555 2 18.5V49.6666C2 55.5333 6.88889 57 9.33333 57Z" fill="white" stroke="black" stroke-width="3.66667" stroke-linecap="round"/>
<path d="M16.6667 2H57.923C58.5289 2 59.1335 2.04079 59.7229 2.18127C63.5668 3.09748 69.8334 6.22098 69.8334 13V44.1667" stroke="black" stroke-width="3.66667" stroke-linecap="round"/>
</svg>
