<svg width="101" height="104" viewBox="0 0 101 104" fill="none" xmlns="http://www.w3.org/2000/svg">
<path id="Blob 15" d="M79.6768 15.9386C64.9253 16.6984 60.8785 3.76471 48.4503 0.736646C35.2149 -2.48958 29.2412 5.53715 27.8267 12.1C26.7363 17.159 24.4445 19.355 18.4042 20.7617C14.0989 21.5515 10.284 23.7889 11.2832 29.9259C12.2825 36.0628 10.2571 39.7272 7.2421 41.9225C4.22709 44.1182 1.41419 47.2352 0.424861 51.296C-1.25083 58.1698 2.15563 65.3696 8.43387 68.5617C15.4889 72.0726 19.2779 75.9158 18.7824 83.8868C18.6585 85.8791 19.4899 96.4783 29.5769 93.2743C32.1246 92.4654 42.6636 87.0085 49.0591 97.1363C50.6515 99.658 54.5949 102.14 58.1982 103.019C67.8613 105.374 77.7405 98.25 78.7216 88.4415C79.7858 81.1841 81.106 77.7809 88.9515 80.3158C96.7144 82.824 101.36 72.0191 97.0163 66.4762C90.9879 60.229 98.1813 48.9939 100.466 39.6191C103.588 26.8049 92.5531 14.543 79.6768 15.9386Z" fill="#FAAE2B"/>
</svg>
