<svg width="119" height="120" viewBox="0 0 119 120" fill="none" xmlns="http://www.w3.org/2000/svg">
<path d="M34.7083 25.2917H66.9375C69.6759 25.2917 71.8958 27.5116 71.8958 30.25V77.3542C71.8958 80.0926 69.6759 82.3125 66.9375 82.3125H34.7083C31.9699 82.3125 29.75 80.0926 29.75 77.3542V30.25C29.75 27.5116 31.9699 25.2917 34.7083 25.2917Z" fill="white" stroke="black" stroke-width="4.95833"/>
<path d="M39.6666 40.1666H59.5" stroke="black" stroke-width="4.95833"/>
<path d="M29.75 69.9166H71.8958" stroke="black" stroke-width="4.95833"/>
<path d="M54.5417 40.1666H86.7709C89.5093 40.1666 91.7292 42.3865 91.7292 45.125V92.2291C91.7292 94.9675 89.5093 97.1875 86.7709 97.1875H54.5417C51.8033 97.1875 49.5834 94.9675 49.5834 92.2291V45.125C49.5834 42.3865 51.8033 40.1666 54.5417 40.1666Z" fill="white" stroke="black" stroke-width="4.95833"/>
<path d="M59.5 55.0416H79.3333" stroke="black" stroke-width="4.95833"/>
<path d="M49.5834 84.7916H91.7292" stroke="black" stroke-width="4.95833"/>
</svg>
