<svg width="267" height="82" viewBox="0 0 267 82" fill="none" xmlns="http://www.w3.org/2000/svg">
<ellipse cx="40.9117" cy="41" rx="40.9117" ry="41" fill="#6DE1D2"/>
<path d="M31.5906 53.4739V24.9649C31.5906 23.8172 32.829 23.0963 33.827 23.6631L56.5062 36.5432C57.3503 37.0227 57.522 38.1663 56.8558 38.8724L32.1674 65.0408C31.8092 65.4205 31.281 65.5904 30.7754 65.4604C25.7934 64.1793 16.4644 59.916 13.3022 51.3819C10.6398 43.9354 8.16657 26.308 19.5725 15.3699C30.9785 4.43178 45.3752 5.98084 51.1479 8.12264C55.2534 9.29315 64.7633 14.0997 69.9587 23.9619C71.0188 26.8736 73.0559 33.5943 72.8029 37.3803C72.7982 37.4513 72.7974 37.5174 72.8015 37.5884C73.0945 42.7524 71.2672 54.7652 61.5983 62.3648C52.7437 69.3244 40.0883 69.5162 33.3977 68.5754C32.4592 68.4435 31.5906 69.1549 31.5906 70.1027V74.0173C31.5906 74.8441 32.2608 75.5144 33.0877 75.5144H44.9705C46.5407 75.5144 47.0519 77.6237 45.6559 78.3425L40.8467 80.8191" stroke="#1E1E1E" stroke-width="1.49711" stroke-linecap="round"/>
<path d="M95.2071 28.3383H108.942C109.653 28.3383 110.24 28.5707 110.705 29.0353C111.197 29.4727 111.443 30.0467 111.443 30.7573C111.443 31.4407 111.197 32.001 110.705 32.4383C110.24 32.8483 109.653 33.0533 108.942 33.0533H97.4621L97.8311 32.3563V40.3513L97.5031 40.0233H107.097C107.808 40.0233 108.395 40.2557 108.86 40.7203C109.352 41.1577 109.598 41.7317 109.598 42.4423C109.598 43.1257 109.352 43.686 108.86 44.1233C108.395 44.5333 107.808 44.7383 107.097 44.7383H97.6261L97.8311 44.4103V52.6923L97.5031 52.3233H108.942C109.653 52.3233 110.24 52.5693 110.705 53.0613C111.197 53.526 111.443 54.0727 111.443 54.7013C111.443 55.3847 111.197 55.945 110.705 56.3823C110.24 56.8197 109.653 57.0383 108.942 57.0383H95.2071C94.4964 57.0383 93.8951 56.806 93.4031 56.3413C92.9384 55.8493 92.7061 55.248 92.7061 54.5373V30.8393C92.7061 30.1287 92.9384 29.541 93.4031 29.0763C93.8951 28.5843 94.4964 28.3383 95.2071 28.3383ZM133.517 26.6983C134.227 26.6983 134.815 26.9307 135.28 27.3953C135.744 27.86 135.977 28.4613 135.977 29.1993V54.5373C135.977 55.248 135.744 55.8493 135.28 56.3413C134.815 56.806 134.227 57.0383 133.517 57.0383C132.806 57.0383 132.218 56.806 131.754 56.3413C131.289 55.8493 131.057 55.248 131.057 54.5373V52.5283L131.959 52.8973C131.959 53.2527 131.767 53.69 131.385 54.2093C131.002 54.7013 130.483 55.1933 129.827 55.6853C129.171 56.1773 128.392 56.601 127.49 56.9563C126.615 57.2843 125.658 57.4483 124.62 57.4483C122.734 57.4483 121.025 56.97 119.495 56.0133C117.964 55.0293 116.748 53.69 115.846 51.9953C114.971 50.2733 114.534 48.3053 114.534 46.0913C114.534 43.85 114.971 41.882 115.846 40.1873C116.748 38.4653 117.95 37.126 119.454 36.1693C120.957 35.1853 122.624 34.6933 124.456 34.6933C125.631 34.6933 126.711 34.871 127.695 35.2263C128.679 35.5817 129.526 36.0327 130.237 36.5793C130.975 37.126 131.535 37.6863 131.918 38.2603C132.328 38.807 132.533 39.2717 132.533 39.6543L131.057 40.1873V29.1993C131.057 28.4887 131.289 27.901 131.754 27.4363C132.218 26.9443 132.806 26.6983 133.517 26.6983ZM125.235 52.9383C126.437 52.9383 127.49 52.6377 128.392 52.0363C129.294 51.435 129.991 50.615 130.483 49.5763C131.002 48.5377 131.262 47.376 131.262 46.0913C131.262 44.7793 131.002 43.604 130.483 42.5653C129.991 41.5267 129.294 40.7067 128.392 40.1053C127.49 39.504 126.437 39.2033 125.235 39.2033C124.059 39.2033 123.021 39.504 122.119 40.1053C121.217 40.7067 120.506 41.5267 119.987 42.5653C119.495 43.604 119.249 44.7793 119.249 46.0913C119.249 47.376 119.495 48.5377 119.987 49.5763C120.506 50.615 121.217 51.435 122.119 52.0363C123.021 52.6377 124.059 52.9383 125.235 52.9383ZM158.222 35.1033C158.932 35.1033 159.52 35.3493 159.985 35.8413C160.449 36.306 160.682 36.8937 160.682 37.6043V48.0183C160.682 50.9157 159.875 53.2117 158.263 54.9063C156.65 56.601 154.327 57.4483 151.293 57.4483C148.259 57.4483 145.935 56.601 144.323 54.9063C142.737 53.2117 141.945 50.9157 141.945 48.0183V37.6043C141.945 36.8937 142.177 36.306 142.642 35.8413C143.106 35.3493 143.694 35.1033 144.405 35.1033C145.115 35.1033 145.703 35.3493 146.168 35.8413C146.632 36.306 146.865 36.8937 146.865 37.6043V48.0183C146.865 49.6857 147.234 50.9293 147.972 51.7493C148.71 52.542 149.817 52.9383 151.293 52.9383C152.796 52.9383 153.917 52.542 154.655 51.7493C155.393 50.9293 155.762 49.6857 155.762 48.0183V37.6043C155.762 36.8937 155.994 36.306 156.459 35.8413C156.923 35.3493 157.511 35.1033 158.222 35.1033ZM174.894 57.0383C174.128 57.0383 173.5 56.806 173.008 56.3413C172.516 55.8493 172.27 55.248 172.27 54.5373V30.7573H177.6V54.5373C177.6 55.248 177.34 55.8493 176.821 56.3413C176.329 56.806 175.686 57.0383 174.894 57.0383ZM165.833 33.0533C165.122 33.0533 164.521 32.8347 164.029 32.3973C163.564 31.96 163.332 31.386 163.332 30.6753C163.332 29.9647 163.564 29.4043 164.029 28.9943C164.521 28.557 165.122 28.3383 165.833 28.3383H184.037C184.747 28.3383 185.335 28.557 185.8 28.9943C186.292 29.4317 186.538 30.0057 186.538 30.7163C186.538 31.427 186.292 32.001 185.8 32.4383C185.335 32.8483 184.747 33.0533 184.037 33.0533H165.833ZM206.786 46.0913C206.786 48.3327 206.28 50.3143 205.269 52.0363C204.285 53.731 202.946 55.0567 201.251 56.0133C199.584 56.97 197.711 57.4483 195.634 57.4483C193.557 57.4483 191.671 56.97 189.976 56.0133C188.309 55.0567 186.969 53.731 185.958 52.0363C184.974 50.3143 184.482 48.3327 184.482 46.0913C184.482 43.85 184.974 41.882 185.958 40.1873C186.969 38.4653 188.309 37.126 189.976 36.1693C191.671 35.1853 193.557 34.6933 195.634 34.6933C197.711 34.6933 199.584 35.1853 201.251 36.1693C202.946 37.126 204.285 38.4653 205.269 40.1873C206.28 41.882 206.786 43.85 206.786 46.0913ZM201.866 46.0913C201.866 44.6973 201.579 43.4947 201.005 42.4833C200.458 41.4447 199.707 40.6383 198.75 40.0643C197.821 39.4903 196.782 39.2033 195.634 39.2033C194.486 39.2033 193.434 39.4903 192.477 40.0643C191.548 40.6383 190.796 41.4447 190.222 42.4833C189.675 43.4947 189.402 44.6973 189.402 46.0913C189.402 47.458 189.675 48.6607 190.222 49.6993C190.796 50.7107 191.548 51.5033 192.477 52.0773C193.434 52.6513 194.486 52.9383 195.634 52.9383C196.782 52.9383 197.821 52.6513 198.75 52.0773C199.707 51.5033 200.458 50.7107 201.005 49.6993C201.579 48.6607 201.866 47.458 201.866 46.0913ZM222.449 34.6933C224.362 34.6933 226.071 35.1853 227.574 36.1693C229.105 37.126 230.307 38.4517 231.182 40.1463C232.084 41.841 232.535 43.809 232.535 46.0503C232.535 48.2917 232.084 50.2733 231.182 51.9953C230.307 53.69 229.118 55.0293 227.615 56.0133C226.139 56.97 224.472 57.4483 222.613 57.4483C221.52 57.4483 220.495 57.2707 219.538 56.9153C218.581 56.56 217.734 56.109 216.996 55.5623C216.285 55.0157 215.725 54.469 215.315 53.9223C214.932 53.3483 214.741 52.87 214.741 52.4873L216.012 51.9543V62.7373C216.012 63.448 215.78 64.0357 215.315 64.5003C214.85 64.9923 214.263 65.2383 213.552 65.2383C212.841 65.2383 212.254 65.006 211.789 64.5413C211.324 64.0767 211.092 63.4753 211.092 62.7373V37.6043C211.092 36.8937 211.324 36.306 211.789 35.8413C212.254 35.3493 212.841 35.1033 213.552 35.1033C214.263 35.1033 214.85 35.3493 215.315 35.8413C215.78 36.306 216.012 36.8937 216.012 37.6043V39.6133L215.315 39.2443C215.315 38.889 215.506 38.4653 215.889 37.9733C216.272 37.454 216.791 36.9483 217.447 36.4563C218.103 35.937 218.855 35.5133 219.702 35.1853C220.577 34.8573 221.492 34.6933 222.449 34.6933ZM221.834 39.2033C220.631 39.2033 219.579 39.504 218.677 40.1053C217.775 40.7067 217.064 41.5267 216.545 42.5653C216.053 43.5767 215.807 44.7383 215.807 46.0503C215.807 47.335 216.053 48.5103 216.545 49.5763C217.064 50.615 217.775 51.435 218.677 52.0363C219.579 52.6377 220.631 52.9383 221.834 52.9383C223.037 52.9383 224.075 52.6377 224.95 52.0363C225.852 51.435 226.549 50.615 227.041 49.5763C227.56 48.5103 227.82 47.335 227.82 46.0503C227.82 44.7383 227.56 43.5767 227.041 42.5653C226.549 41.5267 225.852 40.7067 224.95 40.1053C224.075 39.504 223.037 39.2033 221.834 39.2033ZM241.47 54.5373C241.47 55.248 241.238 55.8493 240.773 56.3413C240.308 56.806 239.721 57.0383 239.01 57.0383C238.299 57.0383 237.712 56.806 237.247 56.3413C236.782 55.8493 236.55 55.248 236.55 54.5373V37.6043C236.55 36.8937 236.782 36.306 237.247 35.8413C237.712 35.3493 238.299 35.1033 239.01 35.1033C239.721 35.1033 240.308 35.3493 240.773 35.8413C241.238 36.306 241.47 36.8937 241.47 37.6043V54.5373ZM238.969 32.4383C238.04 32.4383 237.384 32.288 237.001 31.9873C236.618 31.6867 236.427 31.1537 236.427 30.3883V29.6093C236.427 28.8167 236.632 28.2837 237.042 28.0103C237.479 27.7097 238.135 27.5593 239.01 27.5593C239.967 27.5593 240.636 27.7097 241.019 28.0103C241.402 28.311 241.593 28.844 241.593 29.6093V30.3883C241.593 31.181 241.388 31.7277 240.978 32.0283C240.568 32.3017 239.898 32.4383 238.969 32.4383ZM264.485 34.6933C265.195 34.6933 265.783 34.9257 266.248 35.3903C266.712 35.855 266.945 36.4563 266.945 37.1943V54.5373C266.945 55.248 266.712 55.8493 266.248 56.3413C265.783 56.806 265.195 57.0383 264.485 57.0383C263.774 57.0383 263.186 56.806 262.722 56.3413C262.257 55.8493 262.025 55.248 262.025 54.5373V52.5283L262.927 52.8973C262.927 53.2527 262.735 53.69 262.353 54.2093C261.97 54.7013 261.451 55.1933 260.795 55.6853C260.139 56.1773 259.36 56.601 258.458 56.9563C257.583 57.2843 256.626 57.4483 255.588 57.4483C253.702 57.4483 251.993 56.97 250.463 56.0133C248.932 55.0293 247.716 53.69 246.814 51.9953C245.939 50.2733 245.502 48.3053 245.502 46.0913C245.502 43.85 245.939 41.882 246.814 40.1873C247.716 38.4653 248.918 37.126 250.422 36.1693C251.925 35.1853 253.592 34.6933 255.424 34.6933C256.599 34.6933 257.679 34.871 258.663 35.2263C259.647 35.5817 260.494 36.0327 261.205 36.5793C261.943 37.126 262.503 37.6863 262.886 38.2603C263.296 38.807 263.501 39.2717 263.501 39.6543L262.025 40.1873V37.1943C262.025 36.4837 262.257 35.896 262.722 35.4313C263.186 34.9393 263.774 34.6933 264.485 34.6933ZM256.203 52.9383C257.405 52.9383 258.458 52.6377 259.36 52.0363C260.262 51.435 260.959 50.615 261.451 49.5763C261.97 48.5377 262.23 47.376 262.23 46.0913C262.23 44.7793 261.97 43.604 261.451 42.5653C260.959 41.5267 260.262 40.7067 259.36 40.1053C258.458 39.504 257.405 39.2033 256.203 39.2033C255.027 39.2033 253.989 39.504 253.087 40.1053C252.185 40.7067 251.474 41.5267 250.955 42.5653C250.463 43.604 250.217 44.7793 250.217 46.0913C250.217 47.376 250.463 48.5377 250.955 49.5763C251.474 50.615 252.185 51.435 253.087 52.0363C253.989 52.6377 255.027 52.9383 256.203 52.9383Z" fill="#1E1E1E"/>
</svg>
