<svg width="131" height="41" viewBox="0 0 131 41" fill="none" xmlns="http://www.w3.org/2000/svg">
<ellipse cx="19.9569" cy="20" rx="19.9569" ry="20" fill="#6DE1D2"/>
<path d="M15.41 26.0848V12.178C15.41 11.6181 16.0141 11.2665 16.501 11.543L27.564 17.826C27.9758 18.0598 28.0595 18.6177 27.7345 18.9622L15.6914 31.7272C15.5167 31.9124 15.259 31.9953 15.0124 31.9319C12.5821 31.307 8.03139 29.2273 6.48889 25.0643C5.19016 21.4319 3.98369 12.8331 9.54756 7.49749C15.1114 2.16184 22.1342 2.91748 24.9502 3.96226C26.9529 4.53324 31.5919 6.87791 34.1262 11.6888C34.6433 13.1091 35.637 16.3875 35.5136 18.2343C35.5113 18.2689 35.5109 18.3012 35.5129 18.3358C35.6559 20.8548 34.7645 26.7147 30.048 30.4219C25.7287 33.8168 19.5553 33.9103 16.2916 33.4514C15.8337 33.387 15.41 33.7341 15.41 34.1964V36.106C15.41 36.5093 15.737 36.8363 16.1403 36.8363H21.9368C22.7028 36.8363 22.9521 37.8652 22.2712 38.2159L19.9252 39.4239" stroke="#1E1E1E" stroke-width="2" stroke-linecap="round"/>
<path d="M46.4425 13.8236H53.1425C53.4892 13.8236 53.7758 13.9369 54.0025 14.1636C54.2425 14.3769 54.3625 14.6569 54.3625 15.0036C54.3625 15.3369 54.2425 15.6103 54.0025 15.8236C53.7758 16.0236 53.4892 16.1236 53.1425 16.1236H47.5425L47.7225 15.7836V19.6836L47.5625 19.5236H52.2425C52.5892 19.5236 52.8758 19.6369 53.1025 19.8636C53.3425 20.0769 53.4625 20.3569 53.4625 20.7036C53.4625 21.0369 53.3425 21.3103 53.1025 21.5236C52.8758 21.7236 52.5892 21.8236 52.2425 21.8236H47.6225L47.7225 21.6636V25.7036L47.5625 25.5236H53.1425C53.4892 25.5236 53.7758 25.6436 54.0025 25.8836C54.2425 26.1103 54.3625 26.3769 54.3625 26.6836C54.3625 27.0169 54.2425 27.2903 54.0025 27.5036C53.7758 27.7169 53.4892 27.8236 53.1425 27.8236H46.4425C46.0958 27.8236 45.8025 27.7103 45.5625 27.4836C45.3358 27.2436 45.2225 26.9503 45.2225 26.6036V15.0436C45.2225 14.6969 45.3358 14.4103 45.5625 14.1836C45.8025 13.9436 46.0958 13.8236 46.4425 13.8236ZM65.1302 13.0236C65.4768 13.0236 65.7635 13.1369 65.9902 13.3636C66.2168 13.5903 66.3302 13.8836 66.3302 14.2436V26.6036C66.3302 26.9503 66.2168 27.2436 65.9902 27.4836C65.7635 27.7103 65.4768 27.8236 65.1302 27.8236C64.7835 27.8236 64.4968 27.7103 64.2702 27.4836C64.0435 27.2436 63.9302 26.9503 63.9302 26.6036V25.6236L64.3702 25.8036C64.3702 25.9769 64.2768 26.1903 64.0902 26.4436C63.9035 26.6836 63.6502 26.9236 63.3302 27.1636C63.0102 27.4036 62.6302 27.6103 62.1902 27.7836C61.7635 27.9436 61.2968 28.0236 60.7902 28.0236C59.8702 28.0236 59.0368 27.7903 58.2902 27.3236C57.5435 26.8436 56.9502 26.1903 56.5102 25.3636C56.0835 24.5236 55.8702 23.5636 55.8702 22.4836C55.8702 21.3903 56.0835 20.4303 56.5102 19.6036C56.9502 18.7636 57.5368 18.1103 58.2702 17.6436C59.0035 17.1636 59.8168 16.9236 60.7102 16.9236C61.2835 16.9236 61.8102 17.0103 62.2902 17.1836C62.7702 17.3569 63.1835 17.5769 63.5302 17.8436C63.8902 18.1103 64.1635 18.3836 64.3502 18.6636C64.5502 18.9303 64.6502 19.1569 64.6502 19.3436L63.9302 19.6036V14.2436C63.9302 13.8969 64.0435 13.6103 64.2702 13.3836C64.4968 13.1436 64.7835 13.0236 65.1302 13.0236ZM61.0902 25.8236C61.6768 25.8236 62.1902 25.6769 62.6302 25.3836C63.0702 25.0903 63.4102 24.6903 63.6502 24.1836C63.9035 23.6769 64.0302 23.1103 64.0302 22.4836C64.0302 21.8436 63.9035 21.2703 63.6502 20.7636C63.4102 20.2569 63.0702 19.8569 62.6302 19.5636C62.1902 19.2703 61.6768 19.1236 61.0902 19.1236C60.5168 19.1236 60.0102 19.2703 59.5702 19.5636C59.1302 19.8569 58.7835 20.2569 58.5302 20.7636C58.2902 21.2703 58.1702 21.8436 58.1702 22.4836C58.1702 23.1103 58.2902 23.6769 58.5302 24.1836C58.7835 24.6903 59.1302 25.0903 59.5702 25.3836C60.0102 25.6769 60.5168 25.8236 61.0902 25.8236ZM77.1813 17.1236C77.5279 17.1236 77.8146 17.2436 78.0413 17.4836C78.2679 17.7103 78.3813 17.9969 78.3813 18.3436V23.4236C78.3813 24.8369 77.9879 25.9569 77.2013 26.7836C76.4146 27.6103 75.2813 28.0236 73.8013 28.0236C72.3213 28.0236 71.1879 27.6103 70.4013 26.7836C69.6279 25.9569 69.2413 24.8369 69.2413 23.4236V18.3436C69.2413 17.9969 69.3546 17.7103 69.5813 17.4836C69.8079 17.2436 70.0946 17.1236 70.4413 17.1236C70.7879 17.1236 71.0746 17.2436 71.3013 17.4836C71.5279 17.7103 71.6413 17.9969 71.6413 18.3436V23.4236C71.6413 24.2369 71.8213 24.8436 72.1813 25.2436C72.5413 25.6303 73.0813 25.8236 73.8013 25.8236C74.5346 25.8236 75.0813 25.6303 75.4413 25.2436C75.8013 24.8436 75.9813 24.2369 75.9813 23.4236V18.3436C75.9813 17.9969 76.0946 17.7103 76.3213 17.4836C76.5479 17.2436 76.8346 17.1236 77.1813 17.1236ZM85.3141 27.8236C84.9407 27.8236 84.6341 27.7103 84.3941 27.4836C84.1541 27.2436 84.0341 26.9503 84.0341 26.6036V15.0036H86.6341V26.6036C86.6341 26.9503 86.5074 27.2436 86.2541 27.4836C86.0141 27.7103 85.7007 27.8236 85.3141 27.8236ZM80.8941 16.1236C80.5474 16.1236 80.2541 16.0169 80.0141 15.8036C79.7874 15.5903 79.6741 15.3103 79.6741 14.9636C79.6741 14.6169 79.7874 14.3436 80.0141 14.1436C80.2541 13.9303 80.5474 13.8236 80.8941 13.8236H89.7741C90.1207 13.8236 90.4074 13.9303 90.6341 14.1436C90.8741 14.3569 90.9941 14.6369 90.9941 14.9836C90.9941 15.3303 90.8741 15.6103 90.6341 15.8236C90.4074 16.0236 90.1207 16.1236 89.7741 16.1236H80.8941ZM100.871 22.4836C100.871 23.5769 100.625 24.5436 100.131 25.3836C99.6513 26.2103 98.9979 26.8569 98.1713 27.3236C97.3579 27.7903 96.4446 28.0236 95.4313 28.0236C94.4179 28.0236 93.4979 27.7903 92.6713 27.3236C91.8579 26.8569 91.2046 26.2103 90.7113 25.3836C90.2313 24.5436 89.9913 23.5769 89.9913 22.4836C89.9913 21.3903 90.2313 20.4303 90.7113 19.6036C91.2046 18.7636 91.8579 18.1103 92.6713 17.6436C93.4979 17.1636 94.4179 16.9236 95.4313 16.9236C96.4446 16.9236 97.3579 17.1636 98.1713 17.6436C98.9979 18.1103 99.6513 18.7636 100.131 19.6036C100.625 20.4303 100.871 21.3903 100.871 22.4836ZM98.4713 22.4836C98.4713 21.8036 98.3313 21.2169 98.0513 20.7236C97.7846 20.2169 97.4179 19.8236 96.9513 19.5436C96.4979 19.2636 95.9913 19.1236 95.4313 19.1236C94.8713 19.1236 94.3579 19.2636 93.8913 19.5436C93.4379 19.8236 93.0713 20.2169 92.7913 20.7236C92.5246 21.2169 92.3913 21.8036 92.3913 22.4836C92.3913 23.1503 92.5246 23.7369 92.7913 24.2436C93.0713 24.7369 93.4379 25.1236 93.8913 25.4036C94.3579 25.6836 94.8713 25.8236 95.4313 25.8236C95.9913 25.8236 96.4979 25.6836 96.9513 25.4036C97.4179 25.1236 97.7846 24.7369 98.0513 24.2436C98.3313 23.7369 98.4713 23.1503 98.4713 22.4836ZM108.512 16.9236C109.445 16.9236 110.278 17.1636 111.012 17.6436C111.758 18.1103 112.345 18.7569 112.772 19.5836C113.212 20.4103 113.432 21.3703 113.432 22.4636C113.432 23.5569 113.212 24.5236 112.772 25.3636C112.345 26.1903 111.765 26.8436 111.032 27.3236C110.312 27.7903 109.498 28.0236 108.592 28.0236C108.058 28.0236 107.558 27.9369 107.092 27.7636C106.625 27.5903 106.212 27.3703 105.852 27.1036C105.505 26.8369 105.232 26.5703 105.032 26.3036C104.845 26.0236 104.752 25.7903 104.752 25.6036L105.372 25.3436V30.6036C105.372 30.9503 105.258 31.2369 105.032 31.4636C104.805 31.7036 104.518 31.8236 104.172 31.8236C103.825 31.8236 103.538 31.7103 103.312 31.4836C103.085 31.2569 102.972 30.9636 102.972 30.6036V18.3436C102.972 17.9969 103.085 17.7103 103.312 17.4836C103.538 17.2436 103.825 17.1236 104.172 17.1236C104.518 17.1236 104.805 17.2436 105.032 17.4836C105.258 17.7103 105.372 17.9969 105.372 18.3436V19.3236L105.032 19.1436C105.032 18.9703 105.125 18.7636 105.312 18.5236C105.498 18.2703 105.752 18.0236 106.072 17.7836C106.392 17.5303 106.758 17.3236 107.172 17.1636C107.598 17.0036 108.045 16.9236 108.512 16.9236ZM108.212 19.1236C107.625 19.1236 107.112 19.2703 106.672 19.5636C106.232 19.8569 105.885 20.2569 105.632 20.7636C105.392 21.2569 105.272 21.8236 105.272 22.4636C105.272 23.0903 105.392 23.6636 105.632 24.1836C105.885 24.6903 106.232 25.0903 106.672 25.3836C107.112 25.6769 107.625 25.8236 108.212 25.8236C108.798 25.8236 109.305 25.6769 109.732 25.3836C110.172 25.0903 110.512 24.6903 110.752 24.1836C111.005 23.6636 111.132 23.0903 111.132 22.4636C111.132 21.8236 111.005 21.2569 110.752 20.7636C110.512 20.2569 110.172 19.8569 109.732 19.5636C109.305 19.2703 108.798 19.1236 108.212 19.1236ZM117.79 26.6036C117.79 26.9503 117.677 27.2436 117.45 27.4836C117.224 27.7103 116.937 27.8236 116.59 27.8236C116.244 27.8236 115.957 27.7103 115.73 27.4836C115.504 27.2436 115.39 26.9503 115.39 26.6036V18.3436C115.39 17.9969 115.504 17.7103 115.73 17.4836C115.957 17.2436 116.244 17.1236 116.59 17.1236C116.937 17.1236 117.224 17.2436 117.45 17.4836C117.677 17.7103 117.79 17.9969 117.79 18.3436V26.6036ZM116.57 15.8236C116.117 15.8236 115.797 15.7503 115.61 15.6036C115.424 15.4569 115.33 15.1969 115.33 14.8236V14.4436C115.33 14.0569 115.43 13.7969 115.63 13.6636C115.844 13.5169 116.164 13.4436 116.59 13.4436C117.057 13.4436 117.384 13.5169 117.57 13.6636C117.757 13.8103 117.85 14.0703 117.85 14.4436V14.8236C117.85 15.2103 117.75 15.4769 117.55 15.6236C117.35 15.7569 117.024 15.8236 116.57 15.8236ZM129.017 16.9236C129.364 16.9236 129.65 17.0369 129.877 17.2636C130.104 17.4903 130.217 17.7836 130.217 18.1436V26.6036C130.217 26.9503 130.104 27.2436 129.877 27.4836C129.65 27.7103 129.364 27.8236 129.017 27.8236C128.67 27.8236 128.384 27.7103 128.157 27.4836C127.93 27.2436 127.817 26.9503 127.817 26.6036V25.6236L128.257 25.8036C128.257 25.9769 128.164 26.1903 127.977 26.4436C127.79 26.6836 127.537 26.9236 127.217 27.1636C126.897 27.4036 126.517 27.6103 126.077 27.7836C125.65 27.9436 125.184 28.0236 124.677 28.0236C123.757 28.0236 122.924 27.7903 122.177 27.3236C121.43 26.8436 120.837 26.1903 120.397 25.3636C119.97 24.5236 119.757 23.5636 119.757 22.4836C119.757 21.3903 119.97 20.4303 120.397 19.6036C120.837 18.7636 121.424 18.1103 122.157 17.6436C122.89 17.1636 123.704 16.9236 124.597 16.9236C125.17 16.9236 125.697 17.0103 126.177 17.1836C126.657 17.3569 127.07 17.5769 127.417 17.8436C127.777 18.1103 128.05 18.3836 128.237 18.6636C128.437 18.9303 128.537 19.1569 128.537 19.3436L127.817 19.6036V18.1436C127.817 17.7969 127.93 17.5103 128.157 17.2836C128.384 17.0436 128.67 16.9236 129.017 16.9236ZM124.977 25.8236C125.564 25.8236 126.077 25.6769 126.517 25.3836C126.957 25.0903 127.297 24.6903 127.537 24.1836C127.79 23.6769 127.917 23.1103 127.917 22.4836C127.917 21.8436 127.79 21.2703 127.537 20.7636C127.297 20.2569 126.957 19.8569 126.517 19.5636C126.077 19.2703 125.564 19.1236 124.977 19.1236C124.404 19.1236 123.897 19.2703 123.457 19.5636C123.017 19.8569 122.67 20.2569 122.417 20.7636C122.177 21.2703 122.057 21.8436 122.057 22.4836C122.057 23.1103 122.177 23.6769 122.417 24.1836C122.67 24.6903 123.017 25.0903 123.457 25.3836C123.897 25.6769 124.404 25.8236 124.977 25.8236Z" fill="#1E1E1E"/>
</svg>
