<svg width="77" height="73" viewBox="0 0 77 73" fill="none" xmlns="http://www.w3.org/2000/svg">
<path d="M36.1582 5.25586C36.9427 3.15779 39.8419 3.09192 40.7588 5.05859L40.8418 5.25586L46.2979 19.8467C47.5912 23.3056 50.7662 25.6913 54.4258 25.9883L54.7812 26.0107L70.3447 26.6904C72.5826 26.7882 73.5413 29.5261 71.9541 31.0059L71.792 31.1445L59.6006 40.8428C56.7107 43.1417 55.4232 46.8986 56.2715 50.4707L56.3604 50.8164L60.5225 65.8281C61.121 67.9868 58.8139 69.7442 56.916 68.6914L56.7344 68.5811L43.7432 59.9834C40.6637 57.9453 36.6928 57.8812 33.5576 59.792L33.2568 59.9834L20.2656 68.5811C18.3976 69.8169 16.013 68.1654 16.4277 66.0352L16.4775 65.8281L20.6396 50.8164C21.6264 47.2578 20.4599 43.4616 17.6738 41.0703L17.3994 40.8428L5.20801 31.1445C3.4552 29.75 4.28853 26.9722 6.44238 26.708L6.65527 26.6904L22.2188 26.0107C25.908 25.8495 29.1579 23.5672 30.5713 20.1787L30.7021 19.8467L36.1582 5.25586Z" stroke="#00D4CD" stroke-width="7"/>
</svg>
