<svg width="162" height="170" viewBox="0 0 162 170" fill="none" xmlns="http://www.w3.org/2000/svg">
<g id="Group 105">
<rect id="Rectangle 102" y="3.54321" width="155.901" height="107.005" rx="23.1806" fill="#A089E4"/>
<rect id="Rectangle 101" x="9.21225" y="13.4641" width="136.768" height="88.58" rx="14.8814" fill="#094784" stroke="#F1834E" stroke-width="5.66912"/>
<g id="Group 103">
<circle id="Ellipse 145" cx="57.3998" cy="31.1801" r="20.5506" fill="#FFFFF9"/>
<ellipse id="Ellipse 146" cx="57.7541" cy="30.8258" rx="13.1098" ry="14.5271" fill="#094784"/>
<ellipse id="Ellipse 147" cx="53.8568" cy="26.574" rx="3.5432" ry="8.14936" transform="rotate(42.0418 53.8568 26.574)" fill="#FFFFF9"/>
<ellipse id="Ellipse 148" cx="55.1746" cy="35.3425" rx="1.87452" ry="2.00596" transform="rotate(42.0418 55.1746 35.3425)" fill="#75F0ED"/>
<ellipse id="Ellipse 149" cx="59.8797" cy="29.5125" rx="1.08168" ry="2.50424" transform="rotate(42.0418 59.8797 29.5125)" fill="#75F0ED"/>
</g>
<g id="Group 104">
<circle id="Ellipse 145_2" cx="104.879" cy="32.5974" r="20.5506" fill="#FFFFF9"/>
<ellipse id="Ellipse 146_2" cx="105.233" cy="32.2429" rx="13.1098" ry="14.5271" fill="#094784"/>
<ellipse id="Ellipse 147_2" cx="101.336" cy="27.9912" rx="3.5432" ry="8.14936" transform="rotate(42.0418 101.336 27.9912)" fill="#FFFFF9"/>
<ellipse id="Ellipse 148_2" cx="102.654" cy="36.7597" rx="1.87452" ry="2.00596" transform="rotate(42.0418 102.654 36.7597)" fill="#75F0ED"/>
<ellipse id="Ellipse 149_2" cx="107.359" cy="30.9297" rx="1.08168" ry="2.50424" transform="rotate(42.0418 107.359 30.9297)" fill="#7BEFE6"/>
</g>
<rect id="Rectangle 103" x="55.2739" y="110.548" width="50.3134" height="12.7555" fill="#F1834E"/>
<rect id="Rectangle 104" x="6.37769" y="123.303" width="155.192" height="46.0616" rx="14.1728" fill="#A089E4"/>
<g id="Ellipse 158">
<mask id="path-15-inside-1_1299_1220" fill="white">
<path d="M77.7395 130.607C75.6269 130.635 73.5406 131.08 71.5997 131.915C69.6588 132.749 67.9013 133.958 66.4276 135.472C64.9539 136.986 63.7928 138.776 63.0107 140.738C62.2286 142.701 61.8407 144.799 61.8692 146.911C61.8977 149.024 62.3421 151.11 63.1769 153.051C64.0117 154.992 65.2206 156.75 66.7346 158.223C68.2486 159.697 70.0381 160.858 72.0008 161.64C73.9635 162.422 76.0611 162.81 78.1737 162.782L77.9566 146.694L77.7395 130.607Z"/>
</mask>
<path d="M77.7395 130.607C75.6269 130.635 73.5406 131.08 71.5997 131.915C69.6588 132.749 67.9013 133.958 66.4276 135.472C64.9539 136.986 63.7928 138.776 63.0107 140.738C62.2286 142.701 61.8407 144.799 61.8692 146.911C61.8977 149.024 62.3421 151.11 63.1769 153.051C64.0117 154.992 65.2206 156.75 66.7346 158.223C68.2486 159.697 70.0381 160.858 72.0008 161.64C73.9635 162.422 76.0611 162.81 78.1737 162.782L77.9566 146.694L77.7395 130.607Z" fill="#FFA2BA" stroke="#094784" stroke-width="7.0864" mask="url(#path-15-inside-1_1299_1220)"/>
</g>
<g id="Ellipse 159">
<mask id="path-16-inside-2_1299_1220" fill="white">
<path d="M124.511 162.709C126.623 162.727 128.719 162.33 130.678 161.538C132.637 160.747 134.421 159.578 135.929 158.097C137.436 156.616 138.636 154.853 139.462 152.909C140.288 150.964 140.723 148.876 140.741 146.763C140.76 144.65 140.362 142.554 139.571 140.595C138.78 138.636 137.611 136.852 136.13 135.345C134.649 133.838 132.886 132.637 130.941 131.811C128.997 130.985 126.908 130.551 124.796 130.532L124.653 146.62L124.511 162.709Z"/>
</mask>
<path d="M124.511 162.709C126.623 162.727 128.719 162.33 130.678 161.538C132.637 160.747 134.421 159.578 135.929 158.097C137.436 156.616 138.636 154.853 139.462 152.909C140.288 150.964 140.723 148.876 140.741 146.763C140.76 144.65 140.362 142.554 139.571 140.595C138.78 138.636 137.611 136.852 136.13 135.345C134.649 133.838 132.886 132.637 130.941 131.811C128.997 130.985 126.908 130.551 124.796 130.532L124.653 146.62L124.511 162.709Z" fill="#FFA2BA" stroke="#094784" stroke-width="7.0864" mask="url(#path-16-inside-2_1299_1220)"/>
</g>
<circle id="Ellipse 150" cx="15.59" cy="132.516" r="1.41728" fill="#FFFFF9"/>
<circle id="Ellipse 151" cx="18.7789" cy="156.964" r="1.7716" fill="#FFFFF9"/>
<circle id="Ellipse 157" cx="40.0382" cy="130.744" r="1.7716" fill="#FFFFF9"/>
<circle id="Ellipse 168" cx="95.3121" cy="76.1787" r="1.7716" fill="#FFFFF9"/>
<circle id="Ellipse 173" cx="47.8332" cy="83.2653" r="1.7716" fill="#F1D857"/>
<circle id="Ellipse 179" cx="67.675" cy="87.5168" r="1.7716" fill="#FFFFF9"/>
<circle id="Ellipse 180" cx="87.5171" cy="91.7687" r="1.7716" fill="#FFFFF9"/>
<circle id="Ellipse 174" cx="25.8654" cy="62.0059" r="1.7716" fill="#FFFFF9"/>
<circle id="Ellipse 176" cx="18.0703" cy="83.2653" r="1.7716" fill="#FFFFF9"/>
<circle id="Ellipse 177" cx="134.287" cy="83.2653" r="1.7716" fill="#FFFFF9"/>
<circle id="Ellipse 175" cx="18.0703" cy="45.7073" r="1.7716" fill="#FFFFF9"/>
<circle id="Ellipse 178" cx="134.287" cy="45.7073" r="1.7716" fill="#FFFFF9"/>
<circle id="Ellipse 170" cx="111.611" cy="131.453" r="1.7716" fill="#FFFFF9"/>
<circle id="Ellipse 171" cx="113.028" cy="163.341" r="1.7716" fill="#FFFFF9"/>
<circle id="Ellipse 172" cx="93.1861" cy="164.05" r="1.7716" fill="#FFFFF9"/>
<circle id="Ellipse 169" cx="143.5" cy="130.744" r="1.7716" fill="#FFFFF9"/>
<rect id="Rectangle 105" x="24.0938" y="136.059" width="35.432" height="9.21232" rx="4.60616" fill="#FFFFF9"/>
<rect id="Rectangle 114" x="17.1084" y="79.374" width="29.0542" height="2.12592" rx="1.06296" transform="rotate(-89.7343 17.1084 79.374)" fill="#FFFFF9"/>
<rect id="Rectangle 115" x="133.325" y="79.374" width="29.0542" height="2.12592" rx="1.06296" transform="rotate(-89.7343 133.325 79.374)" fill="#FFFFF9"/>
<rect id="Rectangle 107" x="82.2021" y="136.059" width="35.432" height="9.21232" rx="3.5432" fill="#F1D857"/>
<rect id="Rectangle 112" x="36.1407" y="87.8713" width="7.0864" height="2.83456" rx="1.41728" fill="#FFA2BA"/>
<rect id="Rectangle 113" x="23.4127" y="87.8713" width="11.3382" height="2.83456" rx="1.41728" fill="#FFA2BA"/>
<rect id="Rectangle 108" x="82.2021" y="148.814" width="35.432" height="9.21232" rx="3.5432" fill="#F1D857"/>
<rect id="Rectangle 109" x="20.5504" y="163.972" width="9.21232" height="2.3952" rx="0.921232" fill="#FFA2BA"/>
<rect id="Rectangle 110" x="30.4716" y="164.404" width="5.66912" height="1.47397" rx="0.566912" fill="#FFA2BA"/>
<rect id="Rectangle 106" x="24.0938" y="148.814" width="35.432" height="9.21232" rx="4.60616" fill="#FFFFF9"/>
<path id="Star 15" d="M59.8801 124.012L60.9142 127.195H64.2608L61.5534 129.162L62.5875 132.345L59.8801 130.378L57.1727 132.345L58.2068 129.162L55.4994 127.195H58.8459L59.8801 124.012Z" fill="#094784"/>
<path id="Star 16" d="M55.6284 158.736L56.5034 161.429H59.3351L57.0442 163.093L57.9193 165.786L55.6284 164.122L53.3375 165.786L54.2125 163.093L51.9216 161.429H54.7533L55.6284 158.736Z" fill="#FFFFF9"/>
<path id="Star 17" d="M147.043 141.02L148.554 145.671H153.445L149.488 148.546L151 153.198L147.043 150.323L143.086 153.198L144.597 148.546L140.64 145.671H145.531L147.043 141.02Z" fill="#F1D857"/>
<path id="Star 18" d="M117.28 76.5331L117.837 78.2469L119.639 78.2469L118.181 79.3061L118.738 81.0199L117.28 79.9607L115.822 81.0199L116.379 79.3061L114.921 78.2469L116.723 78.2469L117.28 76.5331Z" fill="#7AE9E2"/>
<path id="Star 21" d="M106.65 82.9109L107.844 86.5833H111.705L108.581 88.853L109.774 92.5255L106.65 90.2558L103.526 92.5255L104.72 88.853L101.596 86.5833H105.457L106.65 82.9109Z" fill="#FFFFF9"/>
<path id="Star 22" d="M32.9518 43.9357L34.145 47.6081H38.0064L34.8825 49.8778L36.0757 53.5502L32.9518 51.2805L29.8278 53.5502L31.021 49.8778L27.8971 47.6081H31.7585L32.9518 43.9357Z" fill="#F1834E"/>
<path id="Star 19" d="M21.9679 28.3456L22.7634 30.7939H25.3377L23.255 32.307L24.0505 34.7553L21.9679 33.2422L19.8852 34.7553L20.6807 32.307L18.5981 30.7939H21.1724L21.9679 28.3456Z" fill="#D9D9D9"/>
<path id="Star 20" d="M134.287 33.3062L134.844 35.02L136.646 35.02L135.188 36.0791L135.745 37.7929L134.287 36.7338L132.829 37.7929L133.386 36.0791L131.928 35.02L133.73 35.02L134.287 33.3062Z" fill="#D9D9D9"/>
<ellipse id="Ellipse 160" cx="4.96048" cy="0.35432" rx="4.96048" ry="0.35432" transform="matrix(0.189436 -0.981893 -0.981893 -0.189436 131.923 152.689)" fill="#D9D9D9"/>
<ellipse id="Ellipse 163" cx="4.96048" cy="0.35432" rx="4.96048" ry="0.35432" transform="matrix(0.189436 -0.981893 -0.981893 -0.189436 68.7256 150.895)" fill="#D9D9D9"/>
<ellipse id="Ellipse 164" cx="4.96048" cy="0.35432" rx="4.96048" ry="0.35432" transform="matrix(0.189436 -0.981893 -0.981893 -0.189436 70.8516 148.769)" fill="#D9D9D9"/>
<ellipse id="Ellipse 165" cx="4.96048" cy="0.35432" rx="4.96048" ry="0.35432" transform="matrix(0.189436 -0.981893 -0.981893 -0.189436 72.2689 152.312)" fill="#D9D9D9"/>
<ellipse id="Ellipse 161" cx="3.03421" cy="0.35432" rx="3.03421" ry="0.35432" transform="matrix(0.189436 -0.981893 -0.981893 -0.189436 131.086 149.947)" fill="#D9D9D9"/>
<ellipse id="Ellipse 162" cx="2.45286" cy="0.35432" rx="2.45286" ry="0.35432" transform="matrix(0.189436 -0.981893 -0.981893 -0.189436 129.669 148.097)" fill="#D9D9D9"/>
<ellipse id="Ellipse 166" cx="50.5642" cy="63.7233" rx="9.92096" ry="6.02344" transform="rotate(34.4034 50.5642 63.7233)" fill="#7AE9E2"/>
<ellipse id="Ellipse 167" cx="111.441" cy="65.43" rx="9.92096" ry="6.02344" transform="rotate(-23.4558 111.441 65.43)" fill="#7AE9E2"/>
<path id="Rectangle 111" d="M71.5728 58.1084H89.9974V67.3207C89.9974 71.2344 86.8247 74.4071 82.911 74.4071H78.6592C74.7454 74.4071 71.5728 71.2344 71.5728 67.3207V58.1084Z" fill="#D9D9D9"/>
<path id="Rectangle 116" d="M73.6986 65.1949H87.8714V66.6122C87.8714 70.5259 84.6987 73.6986 80.785 73.6986C76.8713 73.6986 73.6986 70.5259 73.6986 66.6122V65.1949Z" fill="#FFA2BA"/>
<rect id="Rectangle 117" x="38.2666" y="7.72034" width="20.5506" height="5.66912" rx="2.83456" transform="rotate(-17.8611 38.2666 7.72034)" fill="#094784"/>
<rect id="Rectangle 118" x="105.699" width="20.5506" height="5.66912" rx="2.83456" transform="rotate(31.3118 105.699 0)" fill="#094784"/>
</g>
</svg>
