<svg width="92" height="88" viewBox="0 0 92 88" fill="none" xmlns="http://www.w3.org/2000/svg">
<path d="M48.4287 66.5083C47.7705 65.5381 47.7194 64.228 48.4016 63.1861C49.3074 61.803 51.1631 61.4163 52.5458 62.3221L69.9078 73.6942C71.2911 74.5996 71.6776 76.4555 70.7719 77.8384C69.8661 79.2215 68.0104 79.6082 66.6277 78.7024L49.2657 67.3303C48.9246 67.1069 48.6441 66.8258 48.4287 66.5083Z" fill="#FA5246"/>
<path d="M45.6934 56.7896C45.5646 56.5996 45.4558 56.3917 45.3707 56.1675C44.7847 54.6216 45.5627 52.8935 47.1086 52.3075L79.3346 40.0898C80.8805 39.5038 82.608 40.2811 83.1947 41.8277C83.7808 43.3736 83.0027 45.1018 81.4568 45.6878L49.2308 57.9054C47.9093 58.4066 46.4538 57.9104 45.6934 56.7896Z" fill="#FA5246"/>
<path d="M38.5196 46.2147C37.6966 45.0017 37.8691 43.3372 38.9851 42.3222L55.6885 27.131C56.9117 26.0187 58.8049 26.1084 59.9174 27.3316C61.0289 28.5526 60.94 30.4479 59.7168 31.5605L43.0133 46.7517C41.7902 47.864 39.897 47.7743 38.7845 46.5511C38.6871 46.4438 38.5987 46.3313 38.5196 46.2147Z" fill="#FA5246"/>
<path d="M28.7089 37.4415C28.2788 36.8075 28.0906 36.0094 28.2462 35.1976L33.3438 8.58757C33.6547 6.96392 35.2233 5.89972 36.847 6.21078C38.4705 6.52179 39.5347 8.09033 39.2238 9.71399L34.1262 36.3241C33.8153 37.9477 32.2468 39.0119 30.623 38.7008C29.811 38.5451 29.139 38.0755 28.7089 37.4415Z" fill="#FA5246"/>
</svg>
