<svg width="116" height="116" viewBox="0 0 116 116" fill="none" xmlns="http://www.w3.org/2000/svg">
<g id="icon-grup">
<circle id="Ellipse 50" cx="59.5494" cy="38.8334" r="11.9792" fill="white" stroke="#222222" stroke-width="4.79167" stroke-linecap="round"/>
<path id="Ellipse 51" d="M68.0208 31.6459C68.9685 30.0044 70.3817 28.6808 72.0816 27.8425C73.7816 27.0042 75.6919 26.6888 77.5711 26.9362C79.4503 27.1836 81.2139 27.9827 82.639 29.2324C84.064 30.4821 85.0865 32.1264 85.577 33.9572C86.0676 35.788 86.0042 37.7232 85.395 39.518C84.7857 41.3128 83.6579 42.8867 82.1542 44.0405C80.6505 45.1944 78.8384 45.8764 76.947 46.0004C75.0557 46.1243 73.17 45.6847 71.5286 44.7369" stroke="#222222" stroke-width="4.79167"/>
<path id="Ellipse 52" d="M51.0781 31.6459C50.1304 30.0044 48.7172 28.6808 47.0172 27.8425C45.3173 27.0042 43.407 26.6888 41.5278 26.9362C39.6486 27.1836 37.885 27.9827 36.4599 29.2324C35.0349 30.4821 34.0124 32.1264 33.5219 33.9572C33.0313 35.788 33.0946 37.7232 33.7039 39.518C34.3132 41.3128 35.441 42.8867 36.9447 44.0405C38.4484 45.1944 40.2605 45.8764 42.1519 46.0004C44.0432 46.1243 45.9288 45.6847 47.5703 44.7369" stroke="#222222" stroke-width="4.79167"/>
<path id="Rectangle 4161" d="M59.5495 60.3959C79.1006 60.3959 84.1475 76.2187 85.4503 84.3876C85.8671 87.001 83.7583 89.1459 81.112 89.1459H37.987C35.3406 89.1459 33.2319 87.001 33.6486 84.3877C34.9514 76.2187 39.9983 60.3959 59.5495 60.3959Z" stroke="#222222" stroke-width="4.79167" stroke-linecap="round"/>
<g id="Subtract">
<path fill-rule="evenodd" clip-rule="evenodd" d="M94.512 74.3696C92.7476 67.3239 88.0499 55.6042 76.3203 55.6042C71.2733 55.6042 67.5282 57.774 64.7584 60.8076C77.098 62.8582 82.2366 72.166 84.3765 79.5626H90.1921C93.0269 79.5626 95.2006 77.1195 94.512 74.3696Z" fill="white"/>
<path d="M94.512 74.3696L92.1879 74.9516V74.9516L94.512 74.3696ZM64.7584 60.8076L62.9891 59.1921L60.0162 62.4482L64.3657 63.171L64.7584 60.8076ZM84.3765 79.5626L82.0751 80.2284L82.5756 81.9584H84.3765V79.5626ZM76.3203 58.0001C81.2448 58.0001 84.7033 60.4086 87.2372 63.7833C89.8217 67.2254 91.3394 71.5632 92.1879 74.9516L96.8361 73.7876C95.9202 70.1302 94.2068 65.0853 91.069 60.9062C87.8805 56.6597 83.1253 53.2084 76.3203 53.2084V58.0001ZM66.5277 62.423C68.9253 59.797 72.0589 58.0001 76.3203 58.0001V53.2084C70.4877 53.2084 66.131 55.751 62.9891 59.1921L66.5277 62.423ZM64.3657 63.171C75.3889 65.0028 80.0527 73.2381 82.0751 80.2284L86.678 78.8967C84.4205 71.0938 78.807 60.7135 65.1512 58.4441L64.3657 63.171ZM90.1921 77.1667H84.3765V81.9584H90.1921V77.1667ZM92.1879 74.9516C92.4458 75.9811 91.6895 77.1667 90.1921 77.1667V81.9584C94.3644 81.9584 97.9555 78.2579 96.8361 73.7876L92.1879 74.9516Z" fill="#222222"/>
</g>
<g id="Subtract_2">
<path fill-rule="evenodd" clip-rule="evenodd" d="M54.3404 60.8075C51.5707 57.7739 47.8256 55.6041 42.7786 55.6041C31.049 55.6041 26.3512 67.3237 24.5868 74.3694C23.8981 77.1194 26.0718 79.5625 28.9067 79.5625H34.7223C36.8623 72.1659 42.0009 62.8581 54.3404 60.8075Z" fill="white"/>
<path d="M54.3404 60.8075L54.7332 63.1709L59.0826 62.4481L56.1097 59.192L54.3404 60.8075ZM24.5868 74.3694L22.2627 73.7874L24.5868 74.3694ZM34.7223 79.5625V81.9583H36.5233L37.0238 80.2283L34.7223 79.5625ZM42.7786 58C47.04 58 50.1735 59.7969 52.5711 62.4229L56.1097 59.192C52.9678 55.7508 48.6112 53.2083 42.7786 53.2083V58ZM26.9108 74.9514C27.7594 71.5631 29.2771 67.2253 31.8616 63.7832C34.3955 60.4085 37.8541 58 42.7786 58V53.2083C35.9736 53.2083 31.2184 56.6595 28.0299 60.9061C24.892 65.0852 23.1786 70.13 22.2627 73.7874L26.9108 74.9514ZM28.9067 77.1666C27.4092 77.1666 26.653 75.981 26.9108 74.9514L22.2627 73.7874C21.1432 78.2578 24.7344 81.9583 28.9067 81.9583V77.1666ZM34.7223 77.1666H28.9067V81.9583H34.7223V77.1666ZM37.0238 80.2283C39.0462 73.238 43.7099 65.0027 54.7332 63.1709L53.9477 58.444C40.2918 60.7134 34.6784 71.0937 32.4209 78.8966L37.0238 80.2283Z" fill="#222222"/>
</g>
</g>
</svg>
