<svg width="190" height="26" viewBox="0 0 190 26" fill="none" xmlns="http://www.w3.org/2000/svg">
<path d="M1.864 25C1.39467 25 1 24.84 0.68 24.52C0.36 24.2 0.2 23.8053 0.2 23.336V1.672C0.2 1.18133 0.36 0.786666 0.68 0.487999C1 0.167999 1.39467 0.00799942 1.864 0.00799942H8.264C9.864 0.00799942 11.2827 0.359999 12.52 1.064C13.7573 1.768 14.7173 2.74933 15.4 4.008C16.104 5.24533 16.456 6.67467 16.456 8.296C16.456 9.85333 16.104 11.24 15.4 12.456C14.7173 13.672 13.7573 14.6213 12.52 15.304C11.2827 15.9867 9.864 16.328 8.264 16.328H3.528V23.336C3.528 23.8053 3.368 24.2 3.048 24.52C2.74933 24.84 2.35467 25 1.864 25ZM3.528 13.256H8.264C9.24533 13.256 10.1093 13.0427 10.856 12.616C11.6027 12.1893 12.1893 11.6027 12.616 10.856C13.0427 10.1093 13.256 9.256 13.256 8.296C13.256 7.272 13.0427 6.376 12.616 5.608C12.1893 4.81867 11.6027 4.2 10.856 3.752C10.1093 3.304 9.24533 3.08 8.264 3.08H3.528V13.256ZM27.1775 25.16C25.7055 25.16 24.3828 24.8507 23.2095 24.232C22.0575 23.592 21.1402 22.664 20.4575 21.448C19.7962 20.232 19.4655 18.7387 19.4655 16.968V9.096C19.4655 8.62667 19.6148 8.24266 19.9135 7.944C20.2335 7.624 20.6282 7.464 21.0975 7.464C21.5668 7.464 21.9508 7.624 22.2495 7.944C22.5695 8.24266 22.7295 8.62667 22.7295 9.096V16.968C22.7295 18.1627 22.9535 19.1547 23.4015 19.944C23.8495 20.712 24.4575 21.288 25.2255 21.672C25.9935 22.0347 26.8575 22.216 27.8175 22.216C28.7348 22.216 29.5455 22.0347 30.2495 21.672C30.9748 21.3093 31.5508 20.8187 31.9775 20.2C32.4042 19.5813 32.6175 18.888 32.6175 18.12H34.6335C34.6335 19.4427 34.3028 20.6373 33.6415 21.704C33.0015 22.7707 32.1162 23.6133 30.9855 24.232C29.8762 24.8507 28.6068 25.16 27.1775 25.16ZM34.2495 25C33.7802 25 33.3855 24.8507 33.0655 24.552C32.7668 24.232 32.6175 23.8373 32.6175 23.368V9.096C32.6175 8.60533 32.7668 8.21067 33.0655 7.912C33.3855 7.61333 33.7802 7.464 34.2495 7.464C34.7402 7.464 35.1348 7.61333 35.4335 7.912C35.7322 8.21067 35.8815 8.60533 35.8815 9.096V23.368C35.8815 23.8373 35.7322 24.232 35.4335 24.552C35.1348 24.8507 34.7402 25 34.2495 25ZM47.998 25C46.9313 25 45.9713 24.7333 45.118 24.2C44.2647 23.6453 43.5927 22.8987 43.102 21.96C42.6113 21.0213 42.366 19.9653 42.366 18.792V3.528C42.366 3.05867 42.5153 2.67467 42.814 2.376C43.1127 2.07733 43.4967 1.928 43.966 1.928C44.4353 1.928 44.8193 2.07733 45.118 2.376C45.4167 2.67467 45.566 3.05867 45.566 3.528V18.792C45.566 19.6453 45.8007 20.36 46.27 20.936C46.7393 21.512 47.3153 21.8 47.998 21.8H49.086C49.47 21.8 49.79 21.9493 50.046 22.248C50.3233 22.5467 50.462 22.9307 50.462 23.4C50.462 23.8693 50.2807 24.2533 49.918 24.552C49.5767 24.8507 49.1287 25 48.574 25H47.998ZM40.894 10.888C40.446 10.888 40.0833 10.76 39.806 10.504C39.5287 10.248 39.39 9.928 39.39 9.544C39.39 9.11733 39.5287 8.776 39.806 8.52C40.0833 8.264 40.446 8.136 40.894 8.136H48.286C48.734 8.136 49.0967 8.264 49.374 8.52C49.6513 8.776 49.79 9.11733 49.79 9.544C49.79 9.928 49.6513 10.248 49.374 10.504C49.0967 10.76 48.734 10.888 48.286 10.888H40.894ZM61.7698 25.128C60.2124 25.128 58.8151 24.744 57.5778 23.976C56.3404 23.1867 55.3591 22.1307 54.6338 20.808C53.9298 19.464 53.5778 17.9493 53.5778 16.264C53.5778 14.5787 53.9618 13.064 54.7298 11.72C55.5191 10.376 56.5751 9.32 57.8978 8.552C59.2418 7.76267 60.7458 7.368 62.4098 7.368C64.0738 7.368 65.5671 7.76267 66.8898 8.552C68.2124 9.32 69.2578 10.376 70.0258 11.72C70.8151 13.064 71.2098 14.5787 71.2098 16.264H69.9618C69.9618 17.9493 69.5991 19.464 68.8738 20.808C68.1698 22.1307 67.1991 23.1867 65.9618 23.976C64.7244 24.744 63.3271 25.128 61.7698 25.128ZM62.4098 22.248C63.4978 22.248 64.4684 21.992 65.3218 21.48C66.1751 20.9467 66.8471 20.232 67.3378 19.336C67.8284 18.4187 68.0738 17.3947 68.0738 16.264C68.0738 15.112 67.8284 14.088 67.3378 13.192C66.8471 12.2747 66.1751 11.56 65.3218 11.048C64.4684 10.5147 63.4978 10.248 62.4098 10.248C61.3431 10.248 60.3724 10.5147 59.4978 11.048C58.6444 11.56 57.9618 12.2747 57.4498 13.192C56.9591 14.088 56.7138 15.112 56.7138 16.264C56.7138 17.3947 56.9591 18.4187 57.4498 19.336C57.9618 20.232 58.6444 20.9467 59.4978 21.48C60.3724 21.992 61.3431 22.248 62.4098 22.248ZM69.5778 25.032C69.1084 25.032 68.7138 24.8827 68.3938 24.584C68.0951 24.264 67.9458 23.8693 67.9458 23.4V18.504L68.5538 15.112L71.2098 16.264V23.4C71.2098 23.8693 71.0498 24.264 70.7298 24.584C70.4311 24.8827 70.0471 25.032 69.5778 25.032ZM77.6355 14.056C77.6355 12.776 77.9448 11.6347 78.5635 10.632C79.2035 9.608 80.0568 8.79733 81.1235 8.2C82.1902 7.60267 83.3635 7.304 84.6435 7.304C85.9235 7.304 86.8728 7.51733 87.4915 7.944C88.1315 8.34933 88.3768 8.84 88.2275 9.416C88.1635 9.71467 88.0355 9.94933 87.8435 10.12C87.6728 10.2693 87.4702 10.3653 87.2355 10.408C87.0008 10.4507 86.7448 10.44 86.4675 10.376C85.1022 10.0987 83.8755 10.0773 82.7875 10.312C81.6995 10.5467 80.8355 10.984 80.1955 11.624C79.5768 12.264 79.2675 13.0747 79.2675 14.056H77.6355ZM77.6675 25C77.1555 25 76.7608 24.872 76.4835 24.616C76.2062 24.3387 76.0675 23.9333 76.0675 23.4V9.096C76.0675 8.584 76.2062 8.18933 76.4835 7.912C76.7608 7.63467 77.1555 7.496 77.6675 7.496C78.2008 7.496 78.5955 7.63467 78.8515 7.912C79.1288 8.168 79.2675 8.56267 79.2675 9.096V23.4C79.2675 23.912 79.1288 24.3067 78.8515 24.584C78.5955 24.8613 78.2008 25 77.6675 25Z" fill="#00D4CD"/>
<path d="M93.614 25C93.1447 25 92.75 24.84 92.43 24.52C92.11 24.2 91.95 23.8053 91.95 23.336V1.672C91.95 1.18133 92.11 0.786666 92.43 0.487999C92.75 0.167999 93.1447 0.00799942 93.614 0.00799942H100.014C101.614 0.00799942 103.033 0.359999 104.27 1.064C105.507 1.768 106.467 2.74933 107.15 4.008C107.854 5.24533 108.206 6.67467 108.206 8.296C108.206 9.85333 107.854 11.24 107.15 12.456C106.467 13.672 105.507 14.6213 104.27 15.304C103.033 15.9867 101.614 16.328 100.014 16.328H95.278V23.336C95.278 23.8053 95.118 24.2 94.798 24.52C94.4993 24.84 94.1047 25 93.614 25ZM95.278 13.256H100.014C100.995 13.256 101.859 13.0427 102.606 12.616C103.353 12.1893 103.939 11.6027 104.366 10.856C104.793 10.1093 105.006 9.256 105.006 8.296C105.006 7.272 104.793 6.376 104.366 5.608C103.939 4.81867 103.353 4.2 102.606 3.752C101.859 3.304 100.995 3.08 100.014 3.08H95.278V13.256ZM113.52 25C113.05 25 112.656 24.8507 112.336 24.552C112.037 24.232 111.888 23.8373 111.888 23.368V9.128C111.888 8.63733 112.037 8.24266 112.336 7.944C112.656 7.64533 113.05 7.496 113.52 7.496C114.01 7.496 114.405 7.64533 114.704 7.944C115.002 8.24266 115.152 8.63733 115.152 9.128V23.368C115.152 23.8373 115.002 24.232 114.704 24.552C114.405 24.8507 114.01 25 113.52 25ZM113.52 4.648C112.944 4.648 112.442 4.44533 112.016 4.04C111.61 3.61333 111.408 3.112 111.408 2.536C111.408 1.96 111.61 1.46933 112.016 1.064C112.442 0.637333 112.944 0.424 113.52 0.424C114.096 0.424 114.586 0.637333 114.992 1.064C115.418 1.46933 115.632 1.96 115.632 2.536C115.632 3.112 115.418 3.61333 114.992 4.04C114.586 4.44533 114.096 4.648 113.52 4.648ZM136.008 25.032C135.538 25.032 135.144 24.8827 134.824 24.584C134.525 24.264 134.376 23.8693 134.376 23.4V15.528C134.376 14.312 134.152 13.32 133.704 12.552C133.256 11.784 132.648 11.2187 131.88 10.856C131.133 10.472 130.269 10.28 129.288 10.28C128.392 10.28 127.581 10.4613 126.856 10.824C126.13 11.1867 125.554 11.6773 125.128 12.296C124.701 12.8933 124.488 13.5867 124.488 14.376H122.472C122.472 13.032 122.792 11.8373 123.432 10.792C124.093 9.72533 124.989 8.88267 126.12 8.264C127.25 7.64533 128.52 7.336 129.928 7.336C131.4 7.336 132.712 7.656 133.864 8.296C135.037 8.91467 135.954 9.832 136.616 11.048C137.298 12.264 137.64 13.7573 137.64 15.528V23.4C137.64 23.8693 137.48 24.264 137.16 24.584C136.861 24.8827 136.477 25.032 136.008 25.032ZM122.856 25.032C122.386 25.032 121.992 24.8827 121.672 24.584C121.373 24.264 121.224 23.8693 121.224 23.4V9.128C121.224 8.63733 121.373 8.24266 121.672 7.944C121.992 7.64533 122.386 7.496 122.856 7.496C123.346 7.496 123.741 7.64533 124.04 7.944C124.338 8.24266 124.488 8.63733 124.488 9.128V23.4C124.488 23.8693 124.338 24.264 124.04 24.584C123.741 24.8827 123.346 25.032 122.856 25.032ZM149.404 25C148.338 25 147.378 24.7333 146.524 24.2C145.671 23.6453 144.999 22.8987 144.508 21.96C144.018 21.0213 143.772 19.9653 143.772 18.792V3.528C143.772 3.05867 143.922 2.67467 144.22 2.376C144.519 2.07733 144.903 1.928 145.372 1.928C145.842 1.928 146.226 2.07733 146.524 2.376C146.823 2.67467 146.972 3.05867 146.972 3.528V18.792C146.972 19.6453 147.207 20.36 147.676 20.936C148.146 21.512 148.722 21.8 149.404 21.8H150.492C150.876 21.8 151.196 21.9493 151.452 22.248C151.73 22.5467 151.868 22.9307 151.868 23.4C151.868 23.8693 151.687 24.2533 151.324 24.552C150.983 24.8507 150.535 25 149.98 25H149.404ZM142.3 10.888C141.852 10.888 141.49 10.76 141.212 10.504C140.935 10.248 140.796 9.928 140.796 9.544C140.796 9.11733 140.935 8.776 141.212 8.52C141.49 8.264 141.852 8.136 142.3 8.136H149.692C150.14 8.136 150.503 8.264 150.78 8.52C151.058 8.776 151.196 9.11733 151.196 9.544C151.196 9.928 151.058 10.248 150.78 10.504C150.503 10.76 150.14 10.888 149.692 10.888H142.3ZM163.176 25.128C161.619 25.128 160.221 24.744 158.984 23.976C157.747 23.1867 156.765 22.1307 156.04 20.808C155.336 19.464 154.984 17.9493 154.984 16.264C154.984 14.5787 155.368 13.064 156.136 11.72C156.925 10.376 157.981 9.32 159.304 8.552C160.648 7.76267 162.152 7.368 163.816 7.368C165.48 7.368 166.973 7.76267 168.296 8.552C169.619 9.32 170.664 10.376 171.432 11.72C172.221 13.064 172.616 14.5787 172.616 16.264H171.368C171.368 17.9493 171.005 19.464 170.28 20.808C169.576 22.1307 168.605 23.1867 167.368 23.976C166.131 24.744 164.733 25.128 163.176 25.128ZM163.816 22.248C164.904 22.248 165.875 21.992 166.728 21.48C167.581 20.9467 168.253 20.232 168.744 19.336C169.235 18.4187 169.48 17.3947 169.48 16.264C169.48 15.112 169.235 14.088 168.744 13.192C168.253 12.2747 167.581 11.56 166.728 11.048C165.875 10.5147 164.904 10.248 163.816 10.248C162.749 10.248 161.779 10.5147 160.904 11.048C160.051 11.56 159.368 12.2747 158.856 13.192C158.365 14.088 158.12 15.112 158.12 16.264C158.12 17.3947 158.365 18.4187 158.856 19.336C159.368 20.232 160.051 20.9467 160.904 21.48C161.779 21.992 162.749 22.248 163.816 22.248ZM170.984 25.032C170.515 25.032 170.12 24.8827 169.8 24.584C169.501 24.264 169.352 23.8693 169.352 23.4V18.504L169.96 15.112L172.616 16.264V23.4C172.616 23.8693 172.456 24.264 172.136 24.584C171.837 24.8827 171.453 25.032 170.984 25.032ZM179.042 14.056C179.042 12.776 179.351 11.6347 179.97 10.632C180.61 9.608 181.463 8.79733 182.53 8.2C183.596 7.60267 184.77 7.304 186.05 7.304C187.33 7.304 188.279 7.51733 188.898 7.944C189.538 8.34933 189.783 8.84 189.634 9.416C189.57 9.71467 189.442 9.94933 189.25 10.12C189.079 10.2693 188.876 10.3653 188.642 10.408C188.407 10.4507 188.151 10.44 187.874 10.376C186.508 10.0987 185.282 10.0773 184.194 10.312C183.106 10.5467 182.242 10.984 181.602 11.624C180.983 12.264 180.674 13.0747 180.674 14.056H179.042ZM179.074 25C178.562 25 178.167 24.872 177.89 24.616C177.612 24.3387 177.474 23.9333 177.474 23.4V9.096C177.474 8.584 177.612 8.18933 177.89 7.912C178.167 7.63467 178.562 7.496 179.074 7.496C179.607 7.496 180.002 7.63467 180.258 7.912C180.535 8.168 180.674 8.56267 180.674 9.096V23.4C180.674 23.912 180.535 24.3067 180.258 24.584C180.002 24.8613 179.607 25 179.074 25Z" fill="#FAAE2B"/>
</svg>
